<?xml version="1.0" encoding="UTF-8" standalone="no"?>
<svg
   xmlns:dc="http://purl.org/dc/elements/1.1/"
   xmlns:cc="http://creativecommons.org/ns#"
   xmlns:rdf="http://www.w3.org/1999/02/22-rdf-syntax-ns#"
   xmlns:svg="http://www.w3.org/2000/svg"
   xmlns="http://www.w3.org/2000/svg"
   id="svg2"
   version="1.0"
   width="330"
   height="490">
  <metadata
     id="metadata49">
    <rdf:RDF>
      <cc:Work
         rdf:about="">
        <dc:format>image/svg+xml</dc:format>
        <dc:type
           rdf:resource="http://purl.org/dc/dcmitype/StillImage" />
        <dc:title></dc:title>
      </cc:Work>
    </rdf:RDF>
  </metadata>
  <defs
     id="defs6" />
  <path
     style="fill:#ffffff;fill-opacity:1;fill-rule:evenodd;stroke:#000000;stroke-width:3;stroke-miterlimit:4;stroke-dasharray:none;stroke-opacity:1"
     d="M 78.21215,105.55728 C 79.150761,104.27696 79.490923,97.496419 71.298461,94.502595 60.37418,91.224492 53.545633,79.215525 51.687363,70.261481 c -1.184178,-4.357163 -0.104279,-8.572788 3.287818,-4.747752 4.480782,7.557327 9.607959,15.794841 15.546232,21.298388 10.509029,9.586598 22.289708,8.424526 30.079427,-3.99107 3.06324,-9.380755 2.69017,-23.753478 -1.963332,-31.114243 -0.85147,-3.417395 0.743032,-4.065541 3.130492,-1.570861 4.09784,4.015526 5.14487,7.125349 6.51508,11.574035 1.02153,8.289693 1.62318,17.082783 0.68457,25.800299 9.48916,1.147307 20.02996,-0.01577 28.11927,-2.573423 10.39879,-2.945581 17.50602,-8.969303 21.56806,-18.520612 1.36169,-4.274166 1.54453,-8.476992 2.5703,-13.095985 0.76749,-3.164092 3.74068,-6.086615 5.95383,-0.798211 0.23255,11.899864 -5.97483,23.506611 -12.42317,33.886703 12.0683,5.493639 26.83617,-7.972373 32.23836,-16.321808 2.73189,-5.604503 3.67476,-9.715826 1.02579,-19.036789 -2.55863,-8.804787 -6.48636,-16.084474 -9.64664,-24.378419 -0.34016,-4.065541 0.8185,-7.47124 6.56077,-2.673473 5.35416,10.613841 9.11713,21.997837 13.23741,32.311568 2.06008,5.902505 7.46221,5.749251 10.94136,-0.919546 6.41591,-15.534031 5.21327,-33.944424 7.1752,-48.653578 1.59874,-2.8639826 2.42893,-6.81352445 5.95486,-0.098906 4.20608,16.540019 -2.30833,30.681283 -3.57484,45.954586 -2.11003,6.635774 1.40315,8.327991 4.99074,6.959316 9.22292,-5.405548 13.67169,-16.688522 17.83378,-24.61467 2.07177,-1.925298 4.76327,-1.571945 3.72046,5.337356 -3.33033,9.059154 -7.77683,16.35481 -16.572,24.819022 -4.185,3.626001 -1.56046,7.936339 3.65031,6.344193 7.11584,-1.37187 18.71271,-11.230173 21.2885,-5.786507 -5.06409,13.186677 -33.9134,12.33248 -44.76996,13.461015 -21.08941,2.20176 -36.06982,14.999075 -53.4652,18.550424 -7.25385,-0.08306 -19.54096,-2.4819 -29.53093,-2.909744 -11.95014,-0.852498 -16.87922,-0.649209 -31.565498,10.717301 -11.66672,8.06197 -16.036262,0.0872 -16.036262,0.0872 z"
     id="path2395" />
  <path
     d="m 317.66602,367.67969 c 3.9178,0.11869 3.68827,10.31932 3.29296,13.00781 -1.16716,-7.59151 -2.03886,-11.09132 -5.23632,-12.38867 0.74063,-0.4458 1.38367,-0.6361 1.94336,-0.61914 z m -50.8379,-2.26758 c 3.40477,5.74072 -0.65677,13.02071 -3.14843,15.10351 2.64047,-7.28393 3.42696,-8.89237 3.14843,-15.10351 z M 120.1875,101.45508 c -9.97946,2.07267 -22.670604,15.35364 -27.333984,13.83594 2.570304,-1.56767 3.113706,-2.32022 5.558593,-4.01563 -1.365952,-2.81928 -5.015748,-2.85999 -7.320312,-5.08008 -5.040708,2.16582 -9.430098,3.9814 -9.941406,-1.14843 -2.354513,-0.6407 -5.58779,-0.3398 -6.658203,2.02929 -11.784318,-0.6854 -16.07893,2.45704 -23.503907,4.42383 -10.331203,3.16305 -19.871739,6.21569 -34.300781,6.38281 -8.5910713,0.84399 -9.9006742,3.31127 -12.0351562,7.41407 -0.6803241,2.90656 -1.1698094,3.73443 -0.3183594,6.4707 0,1.79539 2.341432,1.32119 3.703125,1.83203 3.3877376,2.45317 6.0584766,2.86923 11.4648436,2.22851 -1.444614,3.03107 -8.923241,2.23386 -11.7890624,-0.23632 0.777029,2.91825 1.3244793,6.01562 4.0117184,6.01562 13.408974,-1.03204 26.806247,0.0896 38.541016,5.04297 2.965739,1.55066 5.93019,3.09812 8.890625,4.64453 1.930385,0.95678 3.616579,0.70912 6.951172,-1.29492 0.18284,2.71498 -1.817795,4.69941 -8.058594,3.45312 -5.494244,14.2966 -18.118495,23.87694 -25.974609,33.96485 -2.705926,3.89894 -7.599154,11.55768 -2.81836,15.29492 4.870627,-5.86206 19.618978,-10.94221 23.236329,-11.2168 -17.545675,9.53878 -13.972204,15.44809 -19.4375,40.03125 3.230434,-5.9323 11.368471,-6.09949 22.222656,-13.63672 -14.404509,20.92702 -20.230931,18.43266 -17.824219,39.77735 1.660385,-3.91122 10.587532,-0.79469 19.095703,-11.44922 -11.375137,17.27484 -7.810414,26.17594 -7.871094,36.70703 0.648938,-0.68776 1.339311,-1.44835 2.044922,-2.23828 1.920386,7.59701 3.963264,15.18899 5.705078,22.69336 -3.985309,5.3183 -7.730752,6.82349 -8.417968,7.39844 -9.052431,6.0696 -23.324225,11.00118 -32.716797,16.47265 -8.0255758,4.61472 -11.1821656,7.2111 -12.4609378,13.96289 l 0.2773438,19.68164 c 0.088245,5.81203 1.8952964,10.47573 2.3183594,15.17774 0.855709,6.92527 -0.6325644,12.62223 1.1660156,19.29101 3.404775,7.67027 8.039849,16.38828 13.134766,22.40039 0.13287,-2.87355 0.685057,-4.301 1.988281,-4.3457 -0.468711,2.12855 -0.726174,3.01471 -0.394531,6.01172 l 6.265625,6.01563 c 1.228803,0.42463 2.268581,1.93273 3.601562,0.34375 2.557565,-5.64067 2.612233,-10.6588 2.216797,-18.02149 -0.597403,-1.62517 -1.661138,-1.71987 -2.429688,-2.14453 -2.561803,-1.11003 -5.796032,-3.96573 -4.857421,-10.37695 1.25434,-4.4934 2.191661,-4.35299 -1.78711,-4.89258 -6.319461,-3.16411 -8.079712,-9.69986 -9.441406,-15.16602 -1.96866,-10.34373 -2.183188,-21.84796 6.183594,-31.25195 7.685433,-4.95529 17.745516,-7.11968 32.345703,-8.57031 8.827296,-0.43631 19.70905,-2.11995 28.351562,-4.50586 1.531311,1.27231 3.439666,1.17745 5.00586,1.18164 -0.618661,-2.61493 -1.736386,-6.02514 -0.390625,-8.44531 0.137129,3.39718 2.241501,6.20361 3.46289,9.00586 5.468011,16.4176 5.394074,19.23287 5.904297,25.04492 0.424148,9.3199 0.556184,18.63641 1.066406,27.95312 l 0.453126,11.68555 c -1.025791,21.971 3.752982,23.25684 3.500002,35.65039 0.25724,12.39674 -2.279346,20.77308 -4.068362,31.28711 l -1.478516,4.4082 c 1.030052,0.33632 2.943321,-1.31127 4.853518,-2.55859 0.71754,0.1128 -2.90615,4.60397 -5.753908,4.89453 -2.990191,6.92633 -5.83844,9.25337 -10.023438,13.71484 1.150162,1.14304 1.746318,1.31756 2.884766,1.42188 0.721775,0.84823 2.371619,-1.87539 3.650391,-3.68359 0.502789,1.55065 -1.013664,3.84443 -1.253907,4.53515 3.246368,0.39059 6.331539,-0.51153 9.964844,-1.74609 3.927742,-1.36759 7.456902,-1.77558 9.164062,-5.36328 l 1.70703,-15.9043 c 1.88147,-0.85675 3.35801,-0.1667 5.6211,-1.74609 -1.87623,-1.9668 -1.5114,-3.55098 -1.85157,-5.17188 -1.79325,-8.80587 -4.01467,-16.48956 -4.18164,-25.97656 -0.42745,-7.17964 -0.52623,-14.35851 0.0723,-20.42383 1.05448,-5.04257 3.28066,-6.31966 4.62109,-14.60938 0.59847,-9.9191 -1.23384,-19.91432 1.58203,-30.51562 l 6.60938,-30.55469 c 0.72284,-3.73349 2.35532,-8.76062 2.84961,-11.7832 0.88016,1.47192 0.7504,7.49606 -0.27539,12.09375 1.86874,0.32035 4.05278,0.85247 5.84179,1.41016 11.52708,0.6854 22.24833,-0.61329 33.77539,-0.61329 6.48956,0.084 13.22141,0.31711 19.79493,-0.0234 8.71121,-1.02702 16.06414,-1.09275 25.88086,-3.14258 17.4858,-3.571 24.57103,-2.53054 25.32988,-5.9884 2.51965,4.82733 4.68573,10.36342 7.1291,14.1466 4.185,7.00937 5.64578,13.93682 7.0957,21.45703 1.11295,7.17964 1.09086,9.89812 -0.61523,17.24805 -1.88148,9.57852 -4.60482,19.48576 -7.75977,28.54492 l -9.82812,23.48828 -6.75195,14.875 -5.03711,12.93946 c 3.50041,5.55766 -0.73248,5.7528 -2.52149,6.41796 -1.1087,4.619 -2.36686,6.33046 -4.71289,10.25977 -1.74011,3.73671 15.61031,5.10521 17.31641,0.74805 2.81585,-4.78926 2.76108,-8.73385 3.4414,-14.62891 0.24555,-2.2371 -0.38259,-5.79993 4.13086,-5.4668 2.2174,-0.25756 4.15752,0.28963 3.04883,-4.83593 -1.53601,-9.57427 1.6234,-13.61834 3.07227,-20.28711 l 8.21679,-17.92188 10.39453,-18.56836 12.22852,-21.00976 c 3.07629,-5.12983 -0.62737,-8.34369 -1.13867,-11.67383 -1.89432,-5.78985 -1.77618,-13.19331 -1.99805,-19.54688 3.20848,1.53467 6.38372,3.18284 9.49024,5.14258 5.63916,4.19006 12.20362,9.61222 17.41015,16.02344 4.5262,6.58044 7.76168,14.31251 10.23633,22.68945 1.9644,8.89208 2.31773,17.85944 2.99805,27.00586 l 0.34765,36.16211 c -0.0829,5.55768 -0.43591,11.69303 -1.88476,17.07617 -0.37416,2.08281 -1.98805,4.39602 -3.08399,6.07227 0.48154,1.00996 2.14134,0.87295 3.10547,0.87695 -0.93861,1.4836 -4.30931,1.75395 -5.83789,1.4336 l -6.68555,8.03515 c -1.45312,1.85398 -0.20719,2.80697 2.20899,3.12305 0.76429,-2.49894 1.72376,-5.3587 3.58398,-5.03516 -0.44858,0.97275 -1.55839,3.71415 -0.82812,5.15625 5.19484,-0.12027 12.34934,-1.83464 13.75781,-3.73437 4.95353,-5.89932 3.24747,-14.74893 7.00195,-19.19336 2.30349,-1.96681 4.54952,-2.19562 3.09961,-7.32227 -1.53178,-6.58044 -1.21584,-13.26073 -1.29882,-19.7539 l -0.42383,-23.92774 c 0.0872,-9.40398 -0.26234,-18.65335 0.50195,-28.04883 0.0872,-6.75179 0.44136,-11.05393 1.46289,-16.52539 0.59845,-5.21285 -2.42143,-6.61847 -5.92187,-9.69531 -6.40344,-6.49743 -10.473,-11.85594 -15.84961,-22.11133 -3.67475,-7.00937 -5.81766,-13.67002 -7.1836,-21.61914 -1.02155,-5.64176 -2.19726,-12.50218 -2.19726,-18.05664 0.71858,-3.79097 0.19269,-7.26214 -2.04493,-11.97265 2.66492,1.36867 4.82793,4.33238 4.3379,11.11718 1.38615,-0.76096 2.62752,-2.0325 3.5332,-4.00781 1.62317,-4.61898 3.21895,-8.02853 2.02734,-13.5 -2.13872,-7.26691 -5.57252,-13.02363 -10.18164,-18.57812 -4.61337,-5.55768 -9.41212,-9.0042 -14.87695,-12.50782 -11.01577,-6.67303 -21.74285,-10.1864 -36.25586,-10.69726 -13.83055,-0.0873 -27.66568,-0.2461 -41.41016,-0.2461 -16.13938,-0.93977 -30.82571,-3.32149 -46.19336,-4.85937 -10.67561,-1.87952 -19.16345,-4.71068 -25.30859,-12.83008 -5.61046,-2.00722 -9.93974,-17.31533 -11.92383,-26.14453 -1.7061,-10.94185 -1.53763,-21.82278 -2.8164,-32.84766 -1.08426,-10.77159 -3.8731,-22.43604 -6.21485,-32.90429 -0.8217,-1.45489 -2.19766,-1.37727 -7.42969,-0.27149 0.66211,-1.80138 11.70712,-3.69823 17.00782,-6.6875 10.24723,-4.18688 12.09203,-10.46964 19.17578,-16.88086 -5.87521,-1.94041 -11.36099,-2.76534 -17.04886,-1.58401 z"
     style="display:inline;fill:#ffffff;fill-opacity:1;fill-rule:evenodd;stroke:#000000;stroke-width:3;stroke-miterlimit:4;stroke-dasharray:none;stroke-opacity:1"
     id="path3142" />
  <path
     id="path3144"
     d="m 239.02656,324.46852 c -7.68329,6.59105 -18.01219,5.5298 -26.98007,8.52402 -3.99346,2.20113 2.02593,3.66148 -3.63205,10.77427 13.70306,-1.50345 35.12226,-8.3058 36.001,-14.79119 z"
     style="display:inline;fill:#ffffff;fill-opacity:1;fill-rule:evenodd;stroke:#000000;stroke-width:3;stroke-linecap:butt;stroke-linejoin:miter;stroke-miterlimit:4;stroke-dasharray:none;stroke-opacity:1" />
  <ellipse
     id="path5098"
     style="display:inline;fill:#ffffff;fill-opacity:1;stroke:#000000;stroke-width:3;stroke-miterlimit:4;stroke-dasharray:none;stroke-opacity:1"
     cx="63.24474"
     cy="117.75637"
     rx="2.4063015"
     ry="2.5046184" />
  <path
     style="display:inline;fill:none;fill-rule:evenodd;stroke:#000000;stroke-width:3;stroke-linecap:butt;stroke-linejoin:miter;stroke-miterlimit:4;stroke-dasharray:none;stroke-opacity:1"
     d="m 54.663789,122.70673 c 2.31479,-7.99996 2.108583,-8.13191 7.638015,-8.12806 5.529453,0.004 16.794565,0.14345 16.794565,0.14345 0,0 -8.208295,2.56999 -12.198338,5.09641 -3.942329,3.87033 -5.874568,2.99299 -12.234242,2.8882 z"
     id="path5096" />
  <path
     d="m 10.224024,128.27976 c -2.0249642,1.32568 -2.7758634,0.20832 -1.5196728,-2.41816 0.3273691,-0.68447 5.2181408,-3.59182 6.8896748,-4.49978 1.857137,-1.00878 3.663182,0.44698 2.255018,2.02569 -0.95209,1.0674 -3.046049,1.70919 -4.815802,2.10214 m 95.265498,-6.90957 c -8.842901,3.92555 -7.43829,-1.14605 -1.24761,-3.18963 2.71641,-0.89671 13.05588,-8.74112 14.92144,-9.43537 5.36566,-1.9968 8.92632,1.27495 4.33469,3.92087 -2.05076,1.18176 -5.96229,2.8719 -5.96229,2.8719 -2.0647,1.04078 -1.76161,1.97955 -0.46782,2.50943 m 151.92363,227.8267 c -14.09109,-6.90641 -29.46908,-9.73815 -45.24609,-34.24813 3.21397,6.03959 11.47051,14.73316 9.53499,18.0625 M 56.427734,303.38086 c 5.13496,14.63575 17.110792,22.1196 25.34375,27.48047 M 128.69145,219.35384 c 0.45272,12.96376 6.24281,22.41587 -5.86274,38.96496 -1.82659,-17.23961 -7.23492,-25.98054 -9.93818,-24.63692 -2.70324,1.3436 1.60807,23.03277 -11.60858,34.54624 1.36927,-17.28356 -5.507512,-27.19981 -9.370994,-25.51483 -3.863482,1.68493 -1.067221,21.26008 -19.468745,37.14121 -0.169177,-27.47996 1.549074,-24.48872 -3.203672,-19.95375 -6.518173,6.21955 -12.775427,14.35662 -18.515883,20.78675"
     style="fill:none;stroke:#000000;stroke-width:3;stroke-linecap:round;stroke-linejoin:miter;stroke-miterlimit:4;stroke-dasharray:none;stroke-opacity:1"
     id="path888" />
</svg>
