<?xml version="1.0" encoding="UTF-8" standalone="no"?>
<!-- Created with Inkscape (http://www.inkscape.org/) -->

<svg
   xmlns:dc="http://purl.org/dc/elements/1.1/"
   xmlns:cc="http://creativecommons.org/ns#"
   xmlns:rdf="http://www.w3.org/1999/02/22-rdf-syntax-ns#"
   xmlns:svg="http://www.w3.org/2000/svg"
   xmlns="http://www.w3.org/2000/svg"
   xmlns:sodipodi="http://sodipodi.sourceforge.net/DTD/sodipodi-0.dtd"
   xmlns:inkscape="http://www.inkscape.org/namespaces/inkscape"
   width="210mm"
   height="297mm"
   viewBox="0 0 744.09448819 1052.3622047"
   id="svg4215"
   version="1.1"
   inkscape:version="0.91 r13725"
   sodipodi:docname="KnightOnHorse.svg">
  <defs
     id="defs4217" />
  <sodipodi:namedview
     id="base"
     pagecolor="#ffffff"
     bordercolor="#666666"
     borderopacity="1.0"
     inkscape:pageopacity="0.0"
     inkscape:pageshadow="2"
     inkscape:zoom="0.35"
     inkscape:cx="-136.42857"
     inkscape:cy="517.14286"
     inkscape:document-units="px"
     inkscape:current-layer="layer1"
     showgrid="false"
     inkscape:window-width="1366"
     inkscape:window-height="715"
     inkscape:window-x="-8"
     inkscape:window-y="-8"
     inkscape:window-maximized="1" />
  <metadata
     id="metadata4220">
    <rdf:RDF>
      <cc:Work
         rdf:about="">
        <dc:format>image/svg+xml</dc:format>
        <dc:type
           rdf:resource="http://purl.org/dc/dcmitype/StillImage" />
        <dc:title />
      </cc:Work>
    </rdf:RDF>
  </metadata>
  <g
     inkscape:label="Layer 1"
     inkscape:groupmode="layer"
     id="layer1">
    <path
       style="display:inline;overflow:visible;fill:#f2f2f2;stroke:#808080;stroke-width:8.90952301;stroke-linecap:butt;stroke-linejoin:miter;stroke-miterlimit:4;stroke-dasharray:none;stroke-opacity:1"
       d="m 390.57036,202.51717 301.49034,6.46048 27.9957,8.61412 -29.07276,10.76747 -305.79761,1.07675 5.38433,-26.91882 0,0 z"
       id="path25536-5"
       sodipodi:nodetypes="cccccc"
       inkscape:connector-curvature="0" />
    <path
       style="display:inline;overflow:visible;fill:#be9500;fill-opacity:1;stroke:#806600;stroke-width:8.90952301;stroke-linecap:butt;stroke-linejoin:miter;stroke-miterlimit:4;stroke-dasharray:none;stroke-opacity:1"
       d="m 374.41838,201.4404 13.99785,-18.30472 11.84472,17.22805 -3.2302,37.6863 -8.61452,13.99785 -17.22805,-13.99785 -82.91005,-8.61392 -1.07606,-25.84208 60.29768,6.46039 26.91863,-8.61402 0,0 z"
       id="path25534-6"
       sodipodi:nodetypes="cccccccccc"
       inkscape:connector-curvature="0" />
    <g
       transform="matrix(9.8994703,0,0,9.8994704,-13972.24,-6092.3129)"
       style="display:inline;overflow:visible;stroke-width:0.89999998;stroke-miterlimit:4;stroke-dasharray:none"
       id="g25529-7">
      <path
         sodipodi:nodetypes="ccccccscccccc"
         id="path25488-8"
         d="m 1452.2818,651.13183 c -2.2222,-0.95948 -4.6075,-1.91896 -6.2735,-2.87844 l -0.9595,-0.88567 c 1.0245,-2.55422 0.911,-4.65014 1.55,-7.01157 l 2.2141,-0.36904 0.2953,-3.91172 c 0,0 -1.5759,-0.80109 -2.4356,-0.88567 -0.6441,-0.0634 -1.919,0.29522 -1.919,0.29522 l -0.6642,3.24747 c -1.443,3.32602 -3.6921,7.13565 -3.3213,9.37337 l 1.1071,3.83792 c 2.7242,0.67376 5.4262,1.21415 8.3401,3.02604 l 2.0665,-3.83791 0,0 z"
         style="fill:#ffe455;fill-opacity:1;stroke:none"
         inkscape:connector-curvature="0" />
      <path
         id="path25490-0"
         d="m 1449.6248,650.24616 c -1.3857,0.56874 -2.4362,1.36095 -2.0666,3.09985 l -1.6975,-0.36903 c -0.3494,-1.56567 -0.3379,-3.05918 0.2952,-4.42836 l -1.3285,-1.32851 -3.2475,0.22142 c 0,0 0.7983,-2.21033 1.181,-3.32128 0.2027,-0.58846 0.5904,-1.77134 0.5904,-1.77134 1.4035,-0.38283 2.0187,0.33048 2.8784,0.66425 l 0.074,-2.80463 c -0.3942,-0.99802 -1.2054,-1.41224 -2.5832,-1.03328 l -3.3212,7.60202 1.6237,4.42836 2.8046,1.54993 4.6498,1.62373 1.8451,-3.46888 -1.6975,-0.66425 -2e-4,0 z"
         style="fill:#be9500;fill-opacity:1;stroke:none"
         sodipodi:nodetypes="ccccccsccccccccccc"
         inkscape:connector-curvature="0" />
      <path
         sodipodi:nodetypes="ccccccscccccc"
         id="path25488-9-6"
         d="m 1452.2818,651.13183 c -2.2222,-0.95948 -4.6075,-1.91896 -6.2735,-2.87844 l -0.9595,-0.88567 c 1.0245,-2.55422 0.911,-4.65014 1.55,-7.01157 l 2.2141,-0.36904 0.2953,-3.91172 c 0,0 -1.5759,-0.80109 -2.4356,-0.88567 -0.6441,-0.0634 -1.919,0.29522 -1.919,0.29522 l -0.6642,3.24747 c -1.443,3.32602 -3.6921,7.13565 -3.3213,9.37337 l 1.1071,3.83792 c 2.7242,0.67376 5.4262,1.21415 8.3401,3.02604 l 2.0665,-3.83791 0,0 z"
         style="display:inline;fill:none;stroke:#806600;stroke-width:0.89999998;stroke-linecap:butt;stroke-linejoin:miter;stroke-miterlimit:4;stroke-dasharray:none;stroke-opacity:1"
         inkscape:connector-curvature="0" />
    </g>
    <g
       id="g25214-5"
       transform="matrix(9.8994703,0,0,9.8994704,-13966.494,-6081.7127)"
       style="display:inline;overflow:visible;stroke-width:0.89999998;stroke-miterlimit:4;stroke-dasharray:none">
      <g
         transform="translate(-0.1870621,0.1819065)"
         id="g24982-7"
         style="stroke-width:0.89999998;stroke-miterlimit:4;stroke-dasharray:none">
        <path
           style="fill:#ffffff;stroke:none"
           d="m 1447.63,665.66736 -2.793,-4.51175 c 0,0 0.6562,-6.08813 0,-9.02352 -0.5871,-2.62625 -1.738,-5.21831 -3.4376,-7.30475 -1.1307,-1.38812 -3.959,-2.29354 -3.959,-2.29354 l 0.5289,-4.13533 c -2.5299,0.22899 -3.6721,1.07469 -4.1813,2.20172 l -0.975,-3.70564 c -1.1451,0.86636 -2.2185,1.75314 -1.8179,3.0611 0,0 -2.4507,0.48427 -3.5606,0.0533 -0.7612,-0.29558 -1.9336,-1.50392 -1.9336,-1.50392 0,0 -0.3591,1.79739 0,2.57815 0.2759,0.59985 0.9134,0.99379 1.5039,1.28907 0.5906,0.29528 1.6802,0.93651 1.6802,0.93651 0,0 -2.3927,1.04838 -3.1003,2.1862 -0.3577,0.57533 -0.5135,2.5863 -0.5135,2.5863 l -1.458,2.2715 c -0.4881,1.61068 -0.2647,3.30584 -1.5824,4.91652 -0.3988,0.48754 -0.4601,1.89438 -0.2279,2.48005 0.4847,1.22417 2.624,2.11724 2.624,2.11724 l 2.1632,-1.94831 1.2014,-0.49275 c 1.5831,-0.64931 2.8551,-3.93867 3.8484,-3.88128 0.7149,0.0413 1.1194,0.28447 1.3809,0.9512 0.2923,0.74541 -0.058,1.65407 -0.4297,2.3633 -1.4572,2.78105 -4.7807,4.479 -6.4666,7.24135 l -2.085,3.41638 c 0,0 -2.247,-3.55543 -4.1605,-4.31882 -0.9609,-0.38331 -2.1552,-0.41349 -3.1034,0 -1.2941,0.56429 -1.8953,1.82521 -2.4944,3.10348 -0.5311,1.13309 -0.8674,3.72329 -0.8674,3.72329 0,0 -1.2369,3.08624 -1.0998,4.50675 0.1595,1.65285 1.8208,3.50159 1.8208,3.50159 0,0 0.1286,0.93048 0.3874,1.3021 0.6334,0.90959 2.6601,1.99509 2.6601,1.99509 l 0.3422,-5.44075 -0.665,-0.88671 c 0,0 0.4137,-1.44584 0.2582,-1.93916 -0.2711,-0.86024 -1.0997,-1.70022 -1.0997,-1.70022 0,0 1.3029,-3.03182 2.6881,-2.94637 1.7838,0.11003 2.4664,4.2678 2.4664,4.2678 0,0 -0.9668,0.0556 -1.3667,0.29489 -0.9502,0.56871 -2.1522,2.53098 -2.1522,2.53098 l -0.4713,6.2629 c 0,0 -2.0549,3.09856 -2.2168,4.87689 -0.083,0.91024 0.2148,1.86477 0.6651,2.66013 0.4119,0.72748 1.7734,1.77342 1.7734,1.77342 0,0 0.5524,2.04518 1.33,2.66012 1.0122,0.80048 3.7685,0.88671 3.7685,0.88671 l 0.6651,-4.43354 -1.9951,-1.33007 c 0,0 -1.8564,-2.35394 -1.9951,-3.76851 -0.1505,-1.53556 1.3301,-4.43354 1.3301,-4.43354 l 2.8818,-2.21677 c 0.5038,-0.38755 0.5008,-1.36463 1.1083,-1.55174 1.4299,-0.44044 2.8938,0.8438 4.2119,1.55174 2.4218,1.30068 4.3394,3.3537 6.7676,4.6423 1.9407,1.02986 4.0155,2.06088 6.207,2.21677 2.1842,0.15537 7.706,-0.52992 7.706,0.9384 0,0 -3.6566,2.5992 -4.0548,4.31624 -0.5549,2.3928 0.8867,6.72885 0.8867,6.72885 0,0 -1.7294,2.04652 -2.8366,2.76673 -0.6998,0.45522 -2.3254,0.93017 -2.3254,0.93017 0,0 -3.2758,-0.71594 -4.6509,0 -0.8392,0.43695 -1.6278,2.32541 -1.6278,2.32541 -1.5503,-0.099 -3.1005,-0.17962 -4.6508,1.86033 0.4357,2.3617 3.5498,2.42758 6.0461,3.02304 l 2.0929,-3.25558 c 0,0 1.4789,1.34862 2.3254,1.16271 0.9695,-0.21295 1.8603,-2.32542 1.8603,-2.32542 0,0 4.9857,0.3114 6.9763,-0.93016 0.7114,-0.44372 1.1522,-1.29042 1.3952,-2.09288 0.4492,-1.48376 -1.3362,-3.86481 0,-4.65083 l 3.9532,-2.32541 c 0,0 2.3223,4.72659 4.1858,6.51116 2.3332,2.23439 8.3714,4.88337 8.3714,4.88337 0,0 0.9645,1.64257 1.1628,2.55796 0.3774,1.7424 0.5441,3.65069 0,5.34845 -0.2035,0.635 -1.1232,1.12261 -1.1628,1.62779 -0.04,0.50518 0.4651,0.93017 0.4651,0.93017 0,0 -1.8891,0.78822 -2.3254,1.62779 -0.2138,0.41146 0,1.39113 0,1.39113 2.0041,0.91049 3.2313,0.26703 4.6487,0.004 l 0.6977,-3.25558 c 0,0 1.6292,-0.65538 1.8603,-1.39525 0.2923,-0.93589 -0.9302,-2.7905 -0.9302,-2.7905 l 0,-3.48812 0.9281,-3.01892 c 0.5164,-1.67977 -2.662,-2.55312 -3.7186,-3.95733 -0.9798,-1.30214 -2.1348,-2.7892 -2.0928,-4.41828 0.059,-2.28818 3.2555,-6.04608 3.2555,-6.04608 l 2.7905,-0.23254 c 1.3513,-0.1126 2.0247,2.13389 2.0929,3.48812 0.073,1.4545 -1.7744,2.49939 -1.8603,3.9532 -0.087,1.46815 0.622,2.93468 1.3952,4.18575 0.6339,1.02575 2.0774,1.45202 2.558,2.55796 0.8964,2.06288 -0.312,4.32891 0.5844,6.3918 0.4369,1.00539 1.3126,1.90592 2.3254,2.32542 1.5039,0.62293 4.5315,0.3519 4.5315,0.3519 0,0 -1.8383,-1.84005 -1.8603,-3.02304 -0.038,-2.04753 2.6449,-3.53534 2.6711,-5.58306 0.053,-4.12613 -4.6303,-6.65299 -5.4616,-10.69485 -0.3761,-1.8285 0.7968,-4.02774 -0.2387,-5.58099 0,0 -1.0774,-2.9253 -2.5559,-3.71655 -2.2553,-1.207 -7.2047,-0.4692 -7.2047,-0.4692 l -5.3485,-6.97625 -12.0921,-7.67387 -4.8242,-3.92709 0,-4e-5 -3e-4,0 0,1.2e-4 0,0 0,0 z"
           id="path19049-34"
           sodipodi:nodetypes="ccsscccccscsscsccssccssssscssscscscccscscsccsscscccscssssscscscsccccscssscscssscscccsccssscssssssscssssscccccccc"
           inkscape:connector-curvature="0" />
        <path
           style="fill:#b3b3b3;fill-opacity:1;stroke:none"
           d="m 1469.8637,690.33708 0.2147,-6.22551 6.8695,0.42934 2.7908,3.64944 0,6.01083 4.5081,7.0842 1.288,3.64944 -3.0961,5.09859 2.1515,3.44228 -3.8726,-0.21514 -3.4423,-2.90443 0,-6.02398 -3.1195,-2.90443 -1.0758,-3.44227 1.9363,-3.765 -1.0757,-3.76499 -1.7211,-0.53785 -2.3558,0.41948 0,0 z"
           id="path24934-3"
           inkscape:connector-curvature="0" />
        <path
           style="fill:#b3b3b3;fill-opacity:1;stroke:none"
           d="m 1467.5939,715.62711 -1.9363,1.29086 -0.1075,1.82871 2.1514,0.32271 2.5817,-0.64543 0.4303,-2.90442 1.8287,-1.50599 -0.6454,-2.68929 -0.2152,-3.65742 1.0757,-3.65742 -3.3347,-2.79685 -2.4741,-4.51799 0.2151,-1.93628 3.3347,-5.37856 -0.4303,-4.84071 -5.7012,-7.52998 -3.6574,-1.93628 c 0,0 4.9832,6.40447 6.0239,10.21926 0.3114,1.14157 0.2904,2.40275 0,3.54985 -0.6103,2.41078 -3.5498,4.07502 -3.5498,6.56185 0,0 -0.1975,1.1133 0,1.61357 0.559,1.41578 3.7495,1.949 3.1196,3.3347 l -1.6136,3.54985 2.0438,1.07571 2.1515,-2.68928 c 0,0 1.8092,1.27102 2.0438,2.259 0.2492,1.04951 -0.7514,2.0464 -0.8605,3.11956 -0.1635,1.60886 -0.1511,3.29451 0.3227,4.84071 0.1459,0.47629 0.7841,0.79368 0.753,1.29085 -0.048,0.7659 -1.3985,1.82871 -1.3985,1.82871 l -2.1514,0 0,0 z"
           id="path24938-0"
           sodipodi:nodetypes="cccccccccccccccccssssscccsssscc"
           inkscape:connector-curvature="0" />
        <path
           style="fill:#b3b3b3;fill-opacity:1;stroke:none"
           d="m 1466.9485,705.08514 -1.3984,-2.90443 c 0,0 -3.6189,-1.43277 -5.0559,-2.68928 -1.296,-1.13318 -2.229,-2.66215 -3.012,-4.19527 -0.5158,-1.00981 -0.8941,-2.10788 -1.0757,-3.22714 -0.2814,-1.73431 0,-5.27099 0,-5.27099 0,0 1.9924,0.11748 2.9044,-0.21514 1.4959,-0.54557 2.759,-1.65874 3.8726,-2.79685 0.8834,-0.90285 2.1514,-3.11957 2.1514,-3.11957 l -3.9801,-5.27099 -6.024,-3.87256 -5.3786,-3.87256 c 0,0 0.9327,8.84971 0,13.12368 -0.2018,0.92487 -1.1832,2.58171 -1.1832,2.58171 0,0 -4.0219,-0.045 -6.024,-0.21514 -1.8746,-0.15927 -3.5358,-0.56376 -5.271,-1.29086 -2.4277,-1.01736 -5.4026,-3.37553 -7.2073,-4.30285 -2.208,-1.13452 -4.8407,-0.75299 -4.8407,-0.75299 l 6.8846,4.30285 5.5937,3.3347 5.1634,1.07572 5.5937,0 0.8606,0.96814 2.3665,4.30285 c 0,0 -2.4311,0.30979 -3.1195,1.18328 -1.2305,1.56145 -0.6272,3.93235 -0.753,5.91641 -0.05,0.78728 0.4567,1.72335 0,2.36657 -1.3852,1.95102 -6.777,2.36657 -6.777,2.36657 l -1.506,0.753 c 0,0 -1.99,-0.54094 -2.9045,-0.21515 -0.884,0.31493 -2.0438,1.93629 -2.0438,1.93629 l -3.012,-1.29086 -1.6136,1.07571 0.8606,2.04386 4.8407,1.39842 2.1514,-3.33471 2.4742,1.39843 2.1514,-2.68928 4.1953,0 3.012,-1.07571 1.1832,-2.68928 -0.8605,-3.44228 4.518,-2.79685 4.4104,6.99213 7.8527,4.41042 0,0 z"
           id="path24940-4"
           sodipodi:nodetypes="ccssscssccccscssscccccccsssccsccccccccccccccc"
           inkscape:connector-curvature="0" />
        <path
           style="fill:#b3b3b3;fill-opacity:1;stroke:none"
           d="m 1419.9215,673.06055 c 0,0 3.3373,0.95606 5.0543,1.14871 1.1796,0.13236 2.3893,0.19014 3.561,0 2.1514,-0.34912 6.203,-1.37845 6.203,-1.37845 l -1.0338,-1.83794 -5.1692,2.06768 c 0,0 -1.7108,-2.23562 -2.0677,-3.561 -0.2389,-0.88736 -0.3451,-1.90521 0,-2.75691 0.661,-1.63126 2.4409,-2.53662 3.6759,-3.79074 0.8359,-0.84885 2.0713,-1.42653 2.5272,-2.52717 0.4982,-1.20277 0,-3.90561 0,-3.90561 l -4.48,5.05432 -4.0205,5.74356 -4.2502,-4.25023 c 0,0 -0.9845,1.34384 -1.2412,2.12209 -0.3561,1.07997 -0.367,3.39172 -0.367,3.39172 l 1.9528,1.26358 c 0,0 -0.149,-2.58936 0.8041,-2.87178 1.2226,-0.36227 2.8718,2.52717 2.8718,2.52717 l 2.7569,3.33126 -4.5949,-0.22974 -2.1825,0.45948 z"
           id="path24942-8"
           sodipodi:nodetypes="csscccssssccccsccscccc"
           inkscape:connector-curvature="0" />
        <path
           style="fill:#b3b3b3;fill-opacity:1;stroke:none"
           d="m 1435.4291,667.43187 c 0,0 -2.485,0.42983 -3.1015,1.37845 -0.3338,0.5137 0.4332,1.40473 0,1.83794 -0.2437,0.24369 -0.7794,0.2324 -1.0339,0 -0.6246,-0.5704 -0.616,-1.77465 -0.2297,-2.52717 0.3449,-0.67187 1.2087,-1.01964 1.9528,-1.14871 0.8065,-0.1399 2.4123,0.45949 2.4123,0.45949 z"
           id="path24944-7"
           sodipodi:nodetypes="csssssc"
           inkscape:connector-curvature="0" />
        <path
           style="fill:#b3b3b3;fill-opacity:1;stroke:none"
           d="m 1441.0578,681.10153 c 0,0 -4.8678,1.18684 -6.318,-0.34462 -0.5529,-0.58386 -0.2238,-1.63997 0,-2.41229 0.6179,-2.13247 1.6785,-4.45183 3.5611,-5.62868 1.176,-0.73516 4.1353,-0.45949 4.1353,-0.45949 0,0 -3.2064,1.35059 -4.0205,2.75691 -0.4811,0.8311 -0.8436,2.13334 -0.2297,2.87178 1.1814,1.42093 5.5138,0.57435 5.5138,0.57435 l -2.642,2.64204 0,0 z"
           id="path24946-5"
           sodipodi:nodetypes="cssscsscc"
           inkscape:connector-curvature="0" />
        <path
           style="fill:#b3b3b3;fill-opacity:1;stroke:none"
           d="m 1416.9348,675.2431 -2.8717,1.49333 -1.2636,-4.82459 1.6082,-5.85842 1.4933,1.03384 2.9866,0.11487 -2.7569,4.13536 0.919,2.18255 -0.1149,1.72306 0,0 z"
           id="path24948-9"
           inkscape:connector-curvature="0" />
        <path
           style="fill:#b3b3b3;fill-opacity:1;stroke:none"
           d="m 1423.1379,690.40609 c -1.7231,0.21197 -3.4461,0.13892 -5.1692,2.41229 l -1.0339,-2.18255 -1.723,-2.06768 c 0,0 1.7723,1.09743 2.4123,0.57435 0.8899,-0.72734 -0.3937,-2.3311 -0.1149,-3.44613 0,0 0.4435,-4.20971 1.4933,-5.9733 0.9565,-1.60685 4.6009,-5.60489 5.0544,-3.79074 l 0.2297,0.91897 -1.3785,2.41229 -1.9528,0.91897 c 0,0 -1.6655,3.32033 -1.6082,5.05432 0.044,1.31794 1.3785,3.33127 1.3785,3.33127 l 2.4123,1.83794 0,0 z"
           id="path24950-5"
           sodipodi:nodetypes="ccccsssscccscc"
           inkscape:connector-curvature="0" />
        <path
           style="fill:#b3b3b3;fill-opacity:1;stroke:none"
           d="m 1445.8823,663.52625 -3.7907,-1.95281 c -0.7245,-1.53161 -0.6976,-3.06323 -4.0205,-4.59484 0.6507,-1.28005 1.384,-2.53652 4.1354,-3.21639 l -2.8718,-1.6082 c -0.1024,-1.03384 0.4511,-2.06768 1.2636,-3.10152 l -2.4123,-0.34461 c -0.3911,-0.84239 0.4645,-1.68477 1.2636,-2.52716 0,0 -1.5999,-0.21695 -2.2975,-0.68923 -0.8537,-0.57801 -1.3784,-2.18255 -1.3784,-2.18255 l 1.6082,-0.91897 3.561,1.95281 3.1015,4.70971 1.1487,5.51382 -0.3446,5.97329 1.0338,2.98665 0,0 z"
           id="path24952-3"
           sodipodi:nodetypes="ccccccccsccccccc"
           inkscape:connector-curvature="0" />
        <path
           style="fill:#b3b3b3;fill-opacity:1;stroke:none"
           d="m 1434.625,643.30894 c -1.99,-0.398 -6.0882,0 -6.0882,0 l -2.9866,-1.95281 0,-3.10152 2.1825,1.83794 3.1015,0 c 0,0 2.233,0.75107 3.2164,1.37845 1.2573,0.80215 3.3313,2.98665 3.3313,2.98665 0,0 -1.7807,-0.95347 -2.7569,-1.14871 z"
           id="path24954-2"
           sodipodi:nodetypes="ccccccscs"
           inkscape:connector-curvature="0" />
        <path
           style="fill:#b3b3b3;fill-opacity:1;stroke:none"
           d="m 1423.1379,653.64734 1.8379,0.91897 c 0,0 1.2891,-3.49679 2.5272,-4.82459 2.2393,-2.40158 8.3856,-5.1692 8.3856,-5.1692 0,0 0.9489,3.65077 0.9189,5.51381 -0.016,0.97609 -0.5743,2.87178 -0.5743,2.87178 l -4.48,1.14871 c 0,0 2.7397,-1.53036 3.3313,-2.87177 0.541,-1.2267 1.0289,-3.32097 -0.1149,-4.02049 -0.7598,-0.46468 -1.8012,0.50079 -2.4123,1.14871 -0.9074,0.96214 -1.4933,2.35333 -1.4933,3.67587 l 0,2.52717 -0.6893,-0.34462 c 0,0 -0.073,-1.15332 0,-1.72306 0.1351,-1.05944 0.8041,-3.10152 0.8041,-3.10152 0,0 -2.4199,0.33521 -3.2163,1.14871 -0.6776,0.69221 -0.5308,1.8694 -0.919,2.75691 -0.3502,0.80075 -1.2636,2.29742 -1.2636,2.29742 l 0.919,1.26358 -0.2298,1.26358 c 0.1646,0.88285 -0.1331,1.28736 -0.7927,1.20864 l -1.5047,0.6293 -2.5272,-2.18255 0,-2.18255 1.4934,-1.95281 z"
           id="path24956-7"
           sodipodi:nodetypes="ccscsccssssccscsscccccccc"
           inkscape:connector-curvature="0" />
        <path
           style="fill:#483e37;stroke:none"
           d="m 1428.3071,648.93763 c 0,0 0.1331,-1.25561 0.6892,-1.72307 0.5928,-0.49825 2.2974,-0.34462 2.2974,-0.34462 0,0 -0.4217,1.30308 -0.919,1.72307 -0.555,0.46873 -2.0676,0.34462 -2.0676,0.34462 l 0,0 z"
           id="path24958-3"
           sodipodi:nodetypes="cscsc"
           inkscape:connector-curvature="0" />
        <path
           style="display:inline;fill:none;stroke:#4d4d4d;stroke-width:0.89999998;stroke-linecap:butt;stroke-linejoin:miter;stroke-miterlimit:4;stroke-dasharray:none;stroke-opacity:1"
           d="m 1447.63,665.66736 -2.793,-4.51175 c 0,0 0.6562,-6.08813 0,-9.02352 -0.5871,-2.62625 -1.738,-5.21831 -3.4376,-7.30475 -1.1307,-1.38812 -3.959,-2.29354 -3.959,-2.29354 l 0.5289,-4.13533 c -2.5299,0.22899 -3.6721,1.07469 -4.1813,2.20172 l -0.975,-3.70564 c -1.1451,0.86636 -2.2185,1.75314 -1.8179,3.0611 0,0 -2.4507,0.48427 -3.5606,0.0533 -0.7612,-0.29558 -1.9336,-1.50392 -1.9336,-1.50392 0,0 -0.3591,1.79739 0,2.57815 0.2759,0.59985 0.9134,0.99379 1.5039,1.28907 0.5906,0.29528 1.6802,0.93651 1.6802,0.93651 0,0 -2.3927,1.04838 -3.1003,2.1862 -0.3577,0.57533 -0.5135,2.5863 -0.5135,2.5863 l -1.458,2.2715 c -0.4881,1.61068 -0.2647,3.30584 -1.5824,4.91652 -0.3988,0.48754 -0.4601,1.89438 -0.2279,2.48005 0.4847,1.22417 2.624,2.11724 2.624,2.11724 1.599,-0.29825 1.9328,-1.1026 2.1632,-1.94831 l 1.2536,-0.5972 c 1.5448,-0.7359 2.8029,-3.83422 3.7962,-3.77683 0.7149,0.0413 1.1194,0.28447 1.3809,0.9512 0.2923,0.74541 -0.058,1.65407 -0.4297,2.3633 -1.4572,2.78105 -4.7807,4.479 -6.4666,7.24135 l -2.085,3.41638 c 0,0 -2.247,-3.55543 -4.1605,-4.31882 -0.9609,-0.38331 -2.1552,-0.41349 -3.1034,0 -1.2941,0.56429 -1.8953,1.82521 -2.4944,3.10348 -0.5311,1.13309 -0.8674,3.72329 -0.8674,3.72329 0,0 -1.2369,3.08624 -1.0998,4.50675 0.1595,1.65285 1.8208,3.50159 1.8208,3.50159 0,0 0.1286,0.93048 0.3874,1.3021 0.6334,0.90959 2.6601,1.99509 2.6601,1.99509 l 0.3422,-5.44075 -0.665,-0.88671 c 0,0 0.4137,-1.44584 0.2582,-1.93916 -0.2711,-0.86024 -1.0997,-1.70022 -1.0997,-1.70022 0,0 1.3029,-3.03182 2.6881,-2.94637 1.7838,0.11003 2.4664,4.2678 2.4664,4.2678 0,0 -0.9668,0.0556 -1.3667,0.29489 -0.9502,0.56871 -2.1522,2.53098 -2.1522,2.53098 l -0.4713,6.2629 c 0,0 -2.0549,3.09856 -2.2168,4.87689 -0.083,0.91024 0.2148,1.86477 0.6651,2.66013 0.4119,0.72748 1.7734,1.77342 1.7734,1.77342 0,0 0.5524,2.04518 1.33,2.66012 1.0122,0.80048 3.7685,0.88671 3.7685,0.88671 l 0.6651,-4.43354 -1.9951,-1.33007 c 0,0 -1.8564,-2.35394 -1.9951,-3.76851 -0.1505,-1.53556 1.3301,-4.43354 1.3301,-4.43354 l 2.8818,-2.21677 c 0.5038,-0.38755 0.5008,-1.36463 1.1083,-1.55174 1.4299,-0.44044 2.8938,0.8438 4.2119,1.55174 2.4218,1.30068 4.3394,3.3537 6.7676,4.6423 1.9407,1.02986 4.0155,2.06088 6.207,2.21677 2.1842,0.15537 7.706,-0.52992 7.706,0.9384 0,0 -3.6566,2.5992 -4.0548,4.31624 -0.5549,2.3928 0.8867,6.72885 0.8867,6.72885 0,0 -1.7294,2.04652 -2.8366,2.76673 -0.6998,0.45522 -2.3254,0.93017 -2.3254,0.93017 0,0 -3.2758,-0.71594 -4.6509,0 -0.8392,0.43695 -1.6278,2.32541 -1.6278,2.32541 -1.5503,-0.099 -3.1005,-0.17962 -4.6508,1.86033 0.4357,2.3617 3.5498,2.42758 6.0461,3.02304 l 2.0929,-3.25558 c 0,0 1.4789,1.34862 2.3254,1.16271 0.9695,-0.21295 1.8603,-2.32542 1.8603,-2.32542 0,0 4.9857,0.3114 6.9763,-0.93016 0.7114,-0.44372 1.1522,-1.29042 1.3952,-2.09288 0.4492,-1.48376 -1.3362,-3.86481 0,-4.65083 l 3.9532,-2.32541 c 0,0 2.3223,4.72659 4.1858,6.51116 2.3332,2.23439 8.3714,4.88337 8.3714,4.88337 0,0 0.9645,1.64257 1.1628,2.55796 0.3774,1.7424 0.5441,3.65069 0,5.34845 -0.2035,0.635 -1.1232,1.12261 -1.1628,1.62779 -0.04,0.50518 0.4651,0.93017 0.4651,0.93017 0,0 -1.8891,0.78822 -2.3254,1.62779 -0.2138,0.41146 0,1.39113 0,1.39113 2.0041,0.91049 3.2313,0.26703 4.6487,0.004 l 0.6977,-3.25558 c 0,0 1.6292,-0.65538 1.8603,-1.39525 0.2923,-0.93589 -0.9302,-2.7905 -0.9302,-2.7905 l 0,-3.48812 0.9281,-3.01892 c 0.5164,-1.67977 -2.662,-2.55312 -3.7186,-3.95733 -0.9798,-1.30214 -2.1348,-2.7892 -2.0928,-4.41828 0.059,-2.28818 3.2555,-6.04608 3.2555,-6.04608 l 2.7905,-0.23254 c 1.3513,-0.1126 2.0247,2.13389 2.0929,3.48812 0.073,1.4545 -1.7744,2.49939 -1.8603,3.9532 -0.087,1.46815 0.622,2.93468 1.3952,4.18575 0.6339,1.02575 2.0774,1.45202 2.558,2.55796 0.8964,2.06288 -0.312,4.32891 0.5844,6.3918 0.4369,1.00539 1.3126,1.90592 2.3254,2.32542 1.5039,0.62293 4.5315,0.3519 4.5315,0.3519 0,0 -1.8383,-1.84005 -1.8603,-3.02304 -0.038,-2.04753 2.6449,-3.53534 2.6711,-5.58306 0.053,-4.12613 -4.6303,-6.65299 -5.4616,-10.69485 -0.3761,-1.8285 0.7968,-4.02774 -0.2387,-5.58099 0,0 -1.0774,-2.9253 -2.5559,-3.71655 -2.2553,-1.207 -7.2047,-0.4692 -7.2047,-0.4692 l -5.3485,-6.97625 -12.0921,-7.67387 -4.8242,-3.92709 0,-4e-5 -3e-4,0 0,1.2e-4 0,0 0,0 z"
           id="path19049-3-9"
           sodipodi:nodetypes="ccsscccccscsscsccssccssssscssscscscccscscsccsscscccscssssscscscsccccscssscscssscscccsccssscssssssscssssscccccccc"
           inkscape:connector-curvature="0" />
      </g>
      <g
         transform="translate(-0.03944912,-0.4001315)"
         id="g25002-7"
         style="stroke-width:0.89999998;stroke-miterlimit:4;stroke-dasharray:none">
        <path
           style="fill:#fadf4f;fill-opacity:1;stroke:#aa8800;stroke-width:0.89999998;stroke-linecap:butt;stroke-linejoin:miter;stroke-miterlimit:4;stroke-dasharray:none;stroke-opacity:1"
           d="m 1460.18,673.45508 c 0,0 -6.2533,5.11815 -10.1836,6.48043 -0.6843,0.23717 -2.1577,0.58289 -2.8545,0.38575 -3.722,-1.05296 -6.4869,-3.34452 -8.6406,-6.55758 -0.594,-0.88616 -0.9461,-2.25206 -1.0029,-3.31737 -0.068,-1.27496 0.1323,-2.4438 0.7715,-3.5488 1.4286,-2.46793 6.4033,-5.9404 6.4033,-5.9404 0,0 1.4741,-0.4546 1.9287,0 0.6001,0.60007 0,2.54588 0,2.54588 l 10.8007,8.94917 1.8516,-0.30859 0.9258,1.31151 z"
           id="path24998-7"
           sodipodi:nodetypes="cssssscscccc"
           inkscape:connector-curvature="0" />
        <path
           style="fill:#1353b4;fill-opacity:1;stroke:none"
           d="m 1446.6791,662.50007 c 0,0 -4.9336,2.95264 -6.249,5.32321 -0.7027,1.26644 -0.9494,2.9561 -0.4629,4.32029 0.9467,2.6548 3.34,4.37576 5.8632,5.6318 1.1167,0.55589 2.4947,0.84976 3.7031,0.54004 3.1836,-0.81599 7.8691,-5.9404 7.8691,-5.9404 l -11.0321,-8.87202 0.3086,-1.00292 z"
           id="path25000-9"
           sodipodi:nodetypes="cssssccc"
           inkscape:connector-curvature="0" />
      </g>
      <path
         sodipodi:nodetypes="cssccsscc"
         id="path25202-5"
         d="m 1446.3438,658.34375 c 0,0 -3.1297,1.67592 -4.625,2.0625 -2.2725,0.58746 -4.7303,0.70973 -7.0313,0.28125 -1.9956,-0.37161 -5.0937,-1.84375 -5.0937,-1.84375 -0.8208,0.0311 -2.0728,-0.23626 -0.6563,1.34375 0,0 3.0785,1.52366 5.4687,1.96875 2.5308,0.47126 5.2016,0.36141 7.6876,-0.28125 1.9774,-0.5112 5,-2.25 5,-2.25 0.8149,-0.95951 1.2798,-1.74407 -0.75,-1.28125 l 0,0 z"
         style="font-style:normal;font-variant:normal;font-weight:normal;font-stretch:normal;font-size:medium;line-height:normal;font-family:'Bitstream Vera Sans';-inkscape-font-specification:'Bitstream Vera Sans';text-indent:0;text-align:start;text-decoration:none;text-decoration-line:none;letter-spacing:normal;word-spacing:normal;text-transform:none;direction:ltr;block-progression:tb;writing-mode:lr-tb;text-anchor:start;display:inline;overflow:visible;visibility:visible;fill:#fadf4f;fill-opacity:1;stroke:#aa8800;stroke-width:0.89999998;stroke-miterlimit:4;stroke-dasharray:none;marker:none;enable-background:accumulate"
         inkscape:connector-curvature="0" />
      <path
         sodipodi:nodetypes="ccsssssccssssscc"
         id="path25208-3"
         d="m 1428.2188,642.4375 c -1.9006,0.73628 -1.789,1.22105 -0.031,1.5 0,0 0.7762,0.008 1.6875,0.0937 0.9113,0.0857 1.9935,0.26768 2.4688,0.5 1.1539,0.5642 2.2245,1.49676 2.7187,2.5625 0.5765,1.24311 0.7045,2.89336 0.25,4.15625 -0.158,0.43907 -0.8878,1.27913 -1.5625,1.90625 -0.6747,0.62712 -1.2812,1.09375 -1.2812,1.09375 -0.9109,1.36625 -0.4682,1.64953 0.9062,1.1875 0,0 0.6656,-0.49908 1.4062,-1.1875 0.7407,-0.68842 1.5818,-1.51132 1.9376,-2.5 0.612,-1.70053 0.4672,-3.66716 -0.2813,-5.28125 -0.697,-1.50286 -2.0479,-2.60183 -3.4375,-3.28125 -0.8761,-0.42832 -2.0191,-0.56402 -3,-0.65625 -0.9809,-0.0922 -1.7812,-0.0937 -1.7812,-0.0937 l -3e-4,0 z"
         style="font-style:normal;font-variant:normal;font-weight:normal;font-stretch:normal;font-size:medium;line-height:normal;font-family:'Bitstream Vera Sans';-inkscape-font-specification:'Bitstream Vera Sans';text-indent:0;text-align:start;text-decoration:none;text-decoration-line:none;letter-spacing:normal;word-spacing:normal;text-transform:none;direction:ltr;block-progression:tb;writing-mode:lr-tb;text-anchor:start;display:inline;overflow:visible;visibility:visible;fill:#fadf4f;fill-opacity:1;stroke:#aa8800;stroke-width:0.89999998;stroke-miterlimit:4;stroke-dasharray:none;marker:none;enable-background:accumulate"
         inkscape:connector-curvature="0" />
    </g>
    <g
       transform="matrix(9.8994703,0,0,9.8994704,-13972.24,-6092.3129)"
       style="display:inline;overflow:visible;stroke-width:0.89999998;stroke-miterlimit:4;stroke-dasharray:none"
       id="g25424-3">
      <path
         style="fill:#ffe455;fill-opacity:1;stroke:#806600;stroke-width:0.89999998;stroke-linecap:butt;stroke-linejoin:miter;stroke-miterlimit:4;stroke-dasharray:none;stroke-opacity:1"
         d="m 1452.5809,647.65517 -3.6126,-1.2042 1.4761,-1.86457 -0.3496,-0.4273 2.2919,-1.94227 2.8357,1.67035 0.6215,3.72915 -0.1553,5.16642 -4.273,-0.54383 1.1653,-4.58375 0,0 z"
         id="path25396-8"
         sodipodi:nodetypes="cccccccccc"
         inkscape:connector-curvature="0" />
      <path
         style="fill:#ffe455;fill-opacity:1;stroke:none"
         d="m 1455.9993,646.33443 c 0,0 -1.8927,1.81793 -2.5638,1.98111 -1.1718,0.28493 -3.1464,-0.11653 -3.1464,-0.11653 1.6133,-1.43035 2.4969,-2.69857 3.1853,-3.92338 l -3.1853,-2.21418 0.6992,-2.29187 2.4084,1.51497 c 0,0 0.6189,-0.74109 1.5538,-0.97113 0.9349,-0.23005 2.7637,-0.25617 3.6903,0.69921 0.9266,0.95538 0.9921,2.61019 0.7769,3.92337 -0.2152,1.31318 -1.9656,2.09375 -1.6315,3.263 l 0.7769,2.71918 c 0,0 -2.0233,-0.87044 -2.5249,-1.90342 -0.4231,-0.87141 -0.039,-2.68033 -0.039,-2.68033 l 10e-5,0 z"
         id="path25394-5"
         sodipodi:nodetypes="csccccczzzscsc"
         inkscape:connector-curvature="0" />
      <path
         style="fill:#be9500;fill-opacity:1;stroke:none"
         d="m 1451.7652,640.66302 7.0698,5.51603 0.505,-1.16536 -5.8348,-3.78278 -1.74,-0.56789 z"
         id="path25398-8"
         sodipodi:nodetypes="ccccc"
         inkscape:connector-curvature="0" />
      <path
         style="fill:#be9500;fill-opacity:1;stroke:none"
         d="m 1450.6387,647.96594 4.4672,-5.01105 2.0588,1.32074 -0.2719,3.14647 1.0876,1.24305 0.6216,2.29187 -2.5638,-1.78688 -0.3496,-2.44725 -2.0588,1.82573 -3.3019,-0.15539 0.3108,-0.42729 0,0 z"
         id="path25400-9"
         inkscape:connector-curvature="0" />
      <path
         style="display:inline;fill:none;stroke:#806600;stroke-width:0.89999998;stroke-linecap:butt;stroke-linejoin:miter;stroke-miterlimit:4;stroke-dasharray:none;stroke-opacity:1"
         d="m 1455.9993,646.33443 c 0,0 -1.8927,1.81793 -2.5638,1.98111 -1.1718,0.28493 -3.1464,-0.11653 -3.1464,-0.11653 1.6133,-1.43035 2.4969,-2.69857 3.1853,-3.92338 l -3.1853,-2.21418 0.6992,-2.29187 2.4084,1.51497 c 0,0 0.6189,-0.74109 1.5538,-0.97113 0.9349,-0.23005 2.7637,-0.25617 3.6903,0.69921 0.9266,0.95538 0.9921,2.61019 0.7769,3.92337 -0.2152,1.31318 -1.9656,2.09375 -1.6315,3.263 l 0.7769,2.71918 c 0,0 -2.0233,-0.87044 -2.5249,-1.90342 -0.4231,-0.87141 -0.039,-2.68033 -0.039,-2.68033 l 10e-5,0 z"
         id="path25394-3-6"
         sodipodi:nodetypes="csccccczzzscsc"
         inkscape:connector-curvature="0" />
    </g>
    <g
       style="display:inline;overflow:visible;stroke-width:0.89999998;stroke-miterlimit:4;stroke-dasharray:none"
       transform="matrix(9.8994703,0,0,9.8994704,-13973.3,-6093.7076)"
       id="g25319-0">
      <path
         style="fill:#ffe455;fill-opacity:1;stroke:none"
         d="m 1433.1183,691.96767 c 0,0 1.5806,0.89421 2.4572,0.95559 0.7928,0.0555 2.3208,-0.54605 2.3208,-0.54605 0,0 1.9173,0.19624 3.0033,-0.27303 0.9752,-0.42135 1.9958,-1.27526 2.1842,-2.32073 0.1664,-0.92323 -0.546,-2.32073 -0.546,-2.32073 l 1.9112,-4.50494 c 0,0 1.4804,-0.99156 1.7746,-1.77468 0.2406,-0.64037 -0.1365,-2.0477 -0.1365,-2.0477 0,0 0.7411,-1.03265 0.8191,-1.63816 0.1128,-0.87631 -0.5461,-2.59376 -0.5461,-2.59376 3.6173,-0.82871 5.6935,-2.91759 7.9801,-4.81086 0.4079,-0.33775 1.6156,-0.008 1.9854,-0.37665 l -0.9556,-4.91448 c 0,0 2.7431,-5.76736 2.8668,-9.00989 0.057,-1.48114 -0.546,-4.23192 -0.546,-4.23192 0,0 -1.3313,-1.27604 -2.1871,-1.4902 -1.1979,-0.29978 -3.6831,0.39809 -3.6831,0.39809 0,0 -1.2705,1.3517 -1.6381,2.18422 -1.5719,3.55946 -2.0477,10.92108 -2.0477,10.92108 l -3.2763,2.59375 1.2286,1.77468 -2.1842,4.50494 c 0,0 -2.5799,0.13585 -3.1398,1.09211 -0.6539,1.11693 0.6826,3.82238 0.6826,3.82238 0,0 -1.1963,2.02059 -1.5017,3.13981 -0.5532,2.02697 -0.546,6.27961 -0.546,6.27961 0,0 -1.6699,1.14159 -2.4573,1.77468 -1.3312,1.07027 -3.8224,3.41284 -3.8224,3.41284 l 0,0 z"
         id="path25236-42"
         sodipodi:nodetypes="cscssccscscsccscscsccccscscsc"
         inkscape:connector-curvature="0" />
      <path
         style="fill:#be9500;fill-opacity:1;stroke:none"
         d="m 1433.5379,691.21096 c 0,0 1.3899,0.83677 2.1433,0.75648 0.6379,-0.068 1.0284,-0.81204 1.6391,-1.00864 1.123,-0.36154 2.6578,0.54198 3.5302,-0.25216 0.3781,-0.34417 0.4152,-1.02835 0.2522,-1.51297 -0.3316,-0.98626 -2.2694,-2.14337 -2.2694,-2.14337 l 0.5043,-0.25217 1.639,0.12609 c 0,0 1.3317,-3.82257 2.5216,-5.42148 0.3021,-0.406 0.9791,-0.5271 1.1348,-1.00864 0.1192,-0.36868 -0.2522,-1.13473 -0.2522,-1.13473 l -3.2781,-1.63905 -0.1261,-1.63905 c 0,0 1.5899,0.44492 2.3956,0.37824 0.6622,-0.0548 1.6503,-0.0111 1.8912,-0.6304 0.4706,-1.20978 -1.8912,-3.40418 -1.8912,-3.40418 l 0.7564,-0.50432 c 0,0 1.1601,1.51313 2.0173,1.63905 0.7645,0.1123 1.6436,-0.29335 2.1434,-0.88257 0.7254,-0.85518 0.9981,-2.18301 0.7565,-3.2781 -0.1032,-0.46793 -0.4521,-0.92419 -0.8826,-1.13472 -0.6418,-0.31388 -2.1433,0 -2.1433,0 l -0.3783,-1.00865 c 0,0 1.9626,-0.23631 2.8999,0 1.2034,0.30339 3.2781,1.76513 3.2781,1.76513 0,0 0.4149,-2.10657 0,-3.02594 -0.3919,-0.86849 -1.3035,-1.44128 -2.1434,-1.89121 -0.5751,-0.30808 -1.8912,-0.50432 -1.8912,-0.50432 l 0.3391,-0.85967 c 0,0 2.4003,0.72499 3.475,1.34854 0.7123,0.4133 1.1318,1.31429 1.9191,1.55601 0.5806,0.17826 1.8154,-0.1556 1.8154,-0.1556 l 1.0373,4.40869 -2.1266,0.0519 -3.2157,2.90455 -4.8236,2.17841 0.6742,2.33401 -0.8817,1.65974 0.2593,2.07468 -1.8672,1.81534 -1.8672,4.40869 0.5706,1.71161 -0.7262,2.33401 -2.6452,1.14107 -2.0228,-0.10373 -1.8672,0.51866 -2.8527,-0.98547 0.559,-0.72972 0,-4e-5 0,0 z"
         id="path25293-3"
         sodipodi:nodetypes="csssscccsscccssccssssccscssccsscccccccccccccccccc"
         inkscape:connector-curvature="0" />
      <path
         style="fill:#be9500;fill-opacity:1;stroke:none"
         d="m 1448.2266,661.01612 c 0,0 1.9265,-6.10541 3.7439,-8.67916 0.6251,-0.88529 2.3825,-2.21234 2.3825,-2.21234 l -2.6378,0.0851 -1.957,2.72287 -1.5316,8.08353 0,0 z"
         id="path25295-3"
         sodipodi:nodetypes="cscccc"
         inkscape:connector-curvature="0" />
      <path
         style="display:inline;fill:none;stroke:#806600;stroke-width:0.89999998;stroke-linecap:butt;stroke-linejoin:miter;stroke-miterlimit:4;stroke-dasharray:none;stroke-opacity:1"
         d="m 1433.1183,691.96767 c 0,0 1.5806,0.89421 2.4572,0.95559 0.7928,0.0555 2.3208,-0.54605 2.3208,-0.54605 0,0 1.9173,0.19624 3.0033,-0.27303 0.9752,-0.42135 1.9958,-1.27526 2.1842,-2.32073 0.1664,-0.92323 -0.546,-2.32073 -0.546,-2.32073 l 1.9112,-4.50494 c 0,0 1.4804,-0.99156 1.7746,-1.77468 0.2406,-0.64037 -0.1365,-2.0477 -0.1365,-2.0477 0,0 0.7411,-1.03265 0.8191,-1.63816 0.1128,-0.87631 -0.5461,-2.59376 -0.5461,-2.59376 3.6173,-0.82871 5.6935,-2.91759 7.9801,-4.81086 0.4079,-0.33775 1.6156,-0.008 1.9854,-0.37665 l -0.9556,-4.91448 c 0,0 2.7431,-5.76736 2.8668,-9.00989 0.057,-1.48114 -0.546,-4.23192 -0.546,-4.23192 0,0 -1.3313,-1.27604 -2.1871,-1.4902 -1.1979,-0.29978 -3.6831,0.39809 -3.6831,0.39809 0,0 -1.2705,1.3517 -1.6381,2.18422 -1.5719,3.55946 -2.0477,10.92108 -2.0477,10.92108 l -3.2763,2.59375 1.2286,1.77468 -2.1842,4.50494 c 0,0 -2.5799,0.13585 -3.1398,1.09211 -0.6539,1.11693 0.6826,3.82238 0.6826,3.82238 0,0 -1.1963,2.02059 -1.5017,3.13981 -0.5532,2.02697 -0.546,6.27961 -0.546,6.27961 0,0 -1.6699,1.14159 -2.4573,1.77468 -1.3312,1.07027 -3.8224,3.41284 -3.8224,3.41284 l 0,0 z"
         id="path25236-9-7"
         sodipodi:nodetypes="cscssccscscsccscscsccccscscsc"
         inkscape:connector-curvature="0" />
    </g>
    <g
       transform="matrix(9.8994703,0,0,9.8994704,-13972.24,-6092.3129)"
       style="display:inline;overflow:visible;stroke-width:0.89999998;stroke-miterlimit:4;stroke-dasharray:none"
       id="g25351-0">
      <path
         style="fill:#ffe455;fill-opacity:1;stroke:none"
         d="m 1443.9682,658.66615 c 0.3907,-1.13953 2.1262,-1.82505 3.2076,-1.44338 l 0.9087,0.32075 c 0,0 1.8498,1.08027 2.8333,1.49684 0.7939,0.33623 2.4591,0.80188 2.4591,0.80188 l 1.283,-1.60376 -0.4277,-2.1918 c 0,0 -0.8048,-0.1933 -1.0691,-0.48112 -0.4727,-0.5147 -0.8173,-1.28992 -0.695,-1.97797 0.1617,-0.90977 1.7641,-2.13834 1.7641,-2.13834 l 2.5126,-0.10692 1.9245,1.65722 0.053,1.81758 -0.6415,1.06918 c 0,0 0.1298,3.55733 -0.6954,5.0251 -0.8253,1.46777 -1.6661,1.9763 -3.154,2.1918 -1.4879,0.21549 -3.1582,-0.0944 -4.2584,-0.63355 -1.0429,-0.51106 -2.7447,-2.1463 -2.7447,-2.1463 l -2.3522,1.01572 c 0,0 -1.2351,-1.72118 -0.9088,-2.67293 l 9e-4,0 0,0 z"
         id="path25291-0"
         sodipodi:nodetypes="cscscccsscccccsssccsc"
         inkscape:connector-curvature="0" />
      <path
         style="fill:#be9500;fill-opacity:1;stroke:none"
         d="m 1454.2536,656.03799 1.7337,-1.09943 2.0298,1.05714 0.7188,-1.184 -0.042,-1.86058 -2.0297,-1.73372 -2.7909,0.296 -1.3954,2.07201 0.7189,1.94515 1.0571,0.50743 -3e-4,0 z"
         id="path25325-1"
         inkscape:connector-curvature="0" />
      <path
         style="fill:#be9500;fill-opacity:1;stroke:none"
         d="m 1457.6365,660.90086 c 0,0 -0.9582,0.0767 -1.3954,-0.0846 -0.8781,-0.32403 -2.2412,-1.69143 -2.2412,-1.69143 l -0.6766,0.84572 c 0,0 1.1458,0.92268 1.0572,1.60686 -0.089,0.68418 -1.6492,1.48 -1.6492,1.48 l -2.0297,-0.42285 c 0,0 1.9131,-0.65094 2.1143,-1.35315 0.2012,-0.70221 -0.8034,-1.69144 -0.8034,-1.69144 l -1.6915,-0.25371 c 0,0 -1.0067,0.53184 -1.2263,1.01486 -0.2217,0.48777 0.042,1.60686 0.042,1.60686 l -1.9874,-1.48 c 0,0 -0.073,-1.12159 0.2114,-1.56458 0.2702,-0.42133 1.2686,-0.80343 1.2686,-0.80343 l 4.3554,1.26857 1.6492,-0.888 -0.2114,-1.39543 c 0,0 1.1227,1.24273 1.8183,1.69143 0.5521,0.35614 1.8182,0.76115 1.8182,0.76115 l -0.4228,1.35314 3e-4,3e-5 0,0 z"
         id="path25327-0"
         sodipodi:nodetypes="cscczcczccsccsccccsccc"
         inkscape:connector-curvature="0" />
      <path
         style="display:inline;fill:none;stroke:#806600;stroke-width:0.89999998;stroke-linecap:butt;stroke-linejoin:miter;stroke-miterlimit:4;stroke-dasharray:none;stroke-opacity:1"
         d="m 1443.9682,658.66615 c 0.3907,-1.13953 2.1262,-1.82505 3.2076,-1.44338 l 0.9087,0.32075 c 0,0 1.8498,1.08027 2.8333,1.49684 0.7939,0.33623 2.4591,0.80188 2.4591,0.80188 l 1.283,-1.60376 -0.4277,-2.1918 c 0,0 -0.8048,-0.1933 -1.0691,-0.48112 -0.4727,-0.5147 -0.8173,-1.28992 -0.695,-1.97797 0.1617,-0.90977 1.7641,-2.13834 1.7641,-2.13834 l 2.5126,-0.10692 1.9245,1.65722 0.053,1.81758 -0.6415,1.06918 c 0,0 0.1298,3.55733 -0.6954,5.0251 -0.8253,1.46777 -1.6661,1.9763 -3.154,2.1918 -1.4879,0.21549 -3.1582,-0.0944 -4.2584,-0.63355 -1.0429,-0.51106 -2.7447,-2.1463 -2.7447,-2.1463 l -2.3522,1.01572 c 0,0 -1.2351,-1.72118 -0.9088,-2.67293 l 9e-4,0 0,0 z"
         id="path25291-4-3"
         sodipodi:nodetypes="cscscccsscccccsssccsc"
         inkscape:connector-curvature="0" />
    </g>
    <ellipse
       style="display:inline;overflow:visible;fill:#fadf4f;fill-opacity:1;stroke:#806600;stroke-width:8.91260052;stroke-miterlimit:4;stroke-dasharray:none;stroke-opacity:1"
       id="path25238-0"
       transform="matrix(0.98445566,0.17563328,-0.21208594,0.97725102,0,0)"
       cx="578.13007"
       cy="471.04352"
       rx="82.764084"
       ry="121.27792" />
    <path
       sodipodi:type="inkscape:offset"
       inkscape:radius="-2.3899853"
       inkscape:original="M 1488.0938 659.65625 C 1483.411 659.65625 1479.625 665.05181 1479.625 671.71875 C 1479.625 678.38569 1483.411 683.78125 1488.0938 683.78125 C 1492.7765 683.78125 1496.5938 678.38569 1496.5938 671.71875 C 1496.5937 665.05181 1492.7765 659.65625 1488.0938 659.65625 z "
       style="display:inline;overflow:visible;fill:#1353b4;fill-opacity:1;stroke:#d4aa00;stroke-width:0.89999998;stroke-miterlimit:4;stroke-dasharray:none;stroke-opacity:1"
       id="path25262-3"
       d="m 1488.0938,662.04688 c -1.4235,0 -2.8322,0.79993 -4.0352,2.51367 -1.203,1.71373 -2.043,4.27714 -2.043,7.1582 0,2.88106 0.84,5.44447 2.043,7.1582 1.203,1.71374 2.6117,2.51367 4.0352,2.51367 1.4234,0 2.8428,-0.80266 4.0527,-2.51757 1.2099,-1.71492 2.0566,-4.27698 2.0566,-7.1543 0,-2.87735 -0.8467,-5.43938 -2.0566,-7.1543 -1.2099,-1.71491 -2.6293,-2.51757 -4.0527,-2.51757 z"
       transform="matrix(9.6095227,1.7144012,-2.1307382,9.8180295,-12399.506,-8584.3023)" />
  </g>
</svg>
