<?xml version="1.0" encoding="UTF-8" standalone="no"?>
<!-- Created with Inkscape (http://www.inkscape.org/) -->
<svg
   xmlns:dc="http://purl.org/dc/elements/1.1/"
   xmlns:cc="http://web.resource.org/cc/"
   xmlns:rdf="http://www.w3.org/1999/02/22-rdf-syntax-ns#"
   xmlns:svg="http://www.w3.org/2000/svg"
   xmlns="http://www.w3.org/2000/svg"
   xmlns:sodipodi="http://sodipodi.sourceforge.net/DTD/sodipodi-0.dtd"
   xmlns:inkscape="http://www.inkscape.org/namespaces/inkscape"
   version="1.0"
   width="210mm"
   height="297mm"
   id="svg2484"
   sodipodi:version="0.32"
   inkscape:version="0.45.1"
   sodipodi:docname="Meuble_héraldique_Crosse.svg"
   inkscape:output_extension="org.inkscape.output.svg.inkscape"
   sodipodi:docbase="F:\Blasons\Meuble héraldique Crosse">
  <metadata
     id="metadata13">
    <rdf:RDF>
      <cc:Work
         rdf:about="">
        <dc:format>image/svg+xml</dc:format>
        <dc:type
           rdf:resource="http://purl.org/dc/dcmitype/StillImage" />
      </cc:Work>
    </rdf:RDF>
  </metadata>
  <sodipodi:namedview
     inkscape:window-height="573"
     inkscape:window-width="748"
     inkscape:pageshadow="2"
     inkscape:pageopacity="0.0"
     guidetolerance="10.0"
     gridtolerance="10.0"
     objecttolerance="10.0"
     borderopacity="1.0"
     bordercolor="#666666"
     pagecolor="#ffffff"
     id="base"
     inkscape:zoom="0.35824168"
     inkscape:cx="372.04724"
     inkscape:cy="466.92547"
     inkscape:window-x="110"
     inkscape:window-y="145"
     inkscape:current-layer="svg2484" />
  <defs
     id="defs2486" />
  <g
     id="layer1"
     transform="matrix(1.5054162,0,0,1.5054162,-202.96708,-270.60795)">
    <g
       transform="matrix(-1,0,0,1,725.39203,101.01525)"
       id="g4590">
      <path
         d="M 340.67745,734.67125 L 340.61287,293.19255 L 358.00739,292.77952 L 358.73694,739.5629 C 354.03228,773.86663 345.77059,772.90606 340.67745,734.67125 z "
         style="fill:#fcef3c;fill-opacity:1;fill-rule:evenodd;stroke:#000000;stroke-width:2.83464575;stroke-linecap:butt;stroke-linejoin:miter;stroke-miterlimit:4;stroke-dasharray:none;stroke-opacity:1"
         id="path2509" />
      <rect
         width="26.723648"
         height="11.757483"
         rx="5.8792024"
         ry="5.8787413"
         x="339.69467"
         y="275.67648"
         transform="matrix(0.9998728,1.5948166e-2,-1.3389139e-2,0.9999104,0,0)"
         style="fill:#fcef3c;fill-opacity:1;stroke:#000000;stroke-width:2.83464813;stroke-linecap:round;stroke-linejoin:round;stroke-miterlimit:4;stroke-dasharray:none;stroke-opacity:1"
         id="rect2511" />
      <rect
         width="26.723648"
         height="11.757483"
         rx="5.8792024"
         ry="5.8787413"
         x="339.69467"
         y="263.34894"
         transform="matrix(0.9998728,1.5948166e-2,-1.3389139e-2,0.9999104,0,0)"
         style="fill:#fcef3c;fill-opacity:1;stroke:#000000;stroke-width:2.83464813;stroke-linecap:round;stroke-linejoin:round;stroke-miterlimit:4;stroke-dasharray:none;stroke-opacity:1"
         id="rect2513" />
      <g
         transform="matrix(0.7191325,-0.6930318,0.6948777,0.720907,145.96919,-237.93003)"
         style="fill:#fcef3c"
         id="g2768">
        <path
           d="M -152.22744,364.33529 C -167.23105,367.13103 -180.58897,376.06979 -190.36615,387.7957 C -194.99963,393.3527 -202.90414,389.40054 -205.19132,384.72973 C -213.88468,393.06513 -200.56188,401.67965 -196.88934,398.86814 C -202.32312,409.90894 -202.19161,422.63218 -200.2724,434.63945 C -199.00517,442.5677 -209.92194,444.23172 -214.35797,442.01931 C -211.54498,452.90718 -204.65469,451.31887 -197.37727,444.68954 C -192.02737,456.54201 -182.98608,464.62676 -177.1474,468.4832 C -177.08923,473.84305 -179.84824,476.93458 -183.05823,479.19881 C -175.30242,481.50966 -170.63162,477.92386 -171.00333,471.37826 C -147.8894,481.77102 -116.18818,473.46168 -105.30012,448.9517 C -94.412065,424.44173 -106.57106,402.7091 -126.24434,394.19683 C -145.91762,385.68456 -169.36639,396.65592 -174.10525,414.42628 C -178.84411,432.19664 -169.14889,449.00355 -151.51023,450.05087 C -138.43966,450.82696 -132.93627,449.76428 -125.72214,439.54976 C -118.50801,429.33523 -123.3489,408.70274 -137.32354,404.20739 C -151.29818,399.71204 -165.21726,411.03313 -166.39942,425.01805 C -166.73498,428.98778 -165.32802,431.66724 -163.61417,437.65744 C -170.90786,418.71511 -165.73074,407.28799 -152.22014,401.25725 C -136.4679,394.22591 -117.28267,403.10101 -111.28158,419.02163 C -104.62403,436.6838 -114.14658,457.35746 -131.36098,464.64458 C -150.12162,472.58624 -173.02878,464.41333 -182.94585,446.82068 C -193.64512,427.84043 -189.05465,401.95819 -171.81215,388.61561 C -153.09322,372.94578 -123.13795,373.84155 -105.46475,390.739 C -85.23148,408.78337 -82.309354,441.66503 -97.73137,463.87749 C -113.40634,486.45429 -143.35045,493.72674 -170.36615,486.7957 C -184.59729,483.14462 -192.67949,491.00922 -195.43034,491.72073 C -196.96802,473.09825 -218.3268,470.7534 -226.0224,476.95195 C -218.76459,481.04131 -208.51296,489.18861 -211.94204,499.3737 C -207.00696,504.19288 -203.00482,507.96407 -199.45884,511.50039 C -193.39706,505.45956 -182.91265,498.96711 -173.33917,498.77934 C -160.40571,498.52567 -141.92753,500.9495 -145.6004,518.84013 C -135.39287,521.51179 -133.26351,506.06555 -138.99115,501.6082 C -125.13852,499.34305 -111.75445,493.75767 -100.7099,485.0457 C -93.26366,481.18482 -86.89452,488.40686 -85.20022,493.0776 C -77.582072,484.98559 -80.252055,478.08418 -90.0918,474.66425 C -81.65792,464.49126 -76.58178,451.69439 -75.2724,438.57695 C -72.96276,431.07349 -64.160516,430.22365 -59.74519,433.51456 C -56.48244,424.3492 -67.189593,421.93753 -75.1474,425.7332 C -76.16766,412.88671 -80.72444,400.32195 -88.30365,389.88945 C -91.9616,382.92701 -84.04127,377.03275 -80.8027,375.4448 C -84.5913,366.43339 -94.701437,370.53043 -96.42865,380.63945 C -107.51159,370.17215 -122.41084,363.84028 -137.6474,363.2332 C -145.9932,362.6544 -145.51056,355.14578 -143.29653,349.2294 C -151.21603,350.47535 -154.66455,357.65303 -152.22744,364.33529 z "
           style="fill:#fcef3c;fill-opacity:1;fill-rule:evenodd;stroke:#000000;stroke-width:2.83464575;stroke-linecap:butt;stroke-linejoin:miter;stroke-miterlimit:4;stroke-dasharray:none;stroke-opacity:1"
           id="path1576" />
      </g>
      <rect
         width="26.723648"
         height="11.757483"
         rx="5.8792024"
         ry="5.8787413"
         x="345.89655"
         y="718.58026"
         transform="matrix(0.9998728,1.5948166e-2,-1.3389137e-2,0.9999104,0,0)"
         style="fill:#fcef3c;fill-opacity:1;stroke:#000000;stroke-width:2.83464813;stroke-linecap:round;stroke-linejoin:round;stroke-miterlimit:4;stroke-dasharray:none;stroke-opacity:1"
         id="rect4588" />
    </g>
  </g>
</svg>
