<svg xmlns="http://www.w3.org/2000/svg" xmlns:svg="http://www.w3.org/2000/svg" width="300.41678" height="383.51901" version="1.0">
  <defs/>
  <path d="M163.68589 211.1049c-27.18535 4.2488-65.93201-.62597-84.24481 19.54689-11.86283 8.1038-52.20195 17.95978-37.05931.69025-24.70457 12.81302 16.43574 22.35938 42.70308 1.87131-32.64097 23.78229 4.17048 27.11542 8.29249 50.05251-6.99365 13.10192-15.05619 7.79779-25.82968 19.90764-4.95899 2.57938-10.38426 1.66598-18.99172.37724-1.42328-3.58417-4.56106-5.20586-7.91192-5.84662-3.45173 1.14226-7.43358 3.65964-6.93081 6.5013-.088 3.89553 6.27519.55303 9.4352 6.34734-7.6092.67608-12.91695-3.0957-17.16462-.83228-3.46568 2.54248-1.82781 7.44298-1.24813 8.95057 7.56026.68747 9.38086-3.85972 15.57481-2.00587-4.36045 6.3521-13.05292-.89029-15.84146 8.54222.81853 3.08948 3.87606 3.03547 6.75554 4.93766 5.27987.28012 7.28943-8.01533 11.98589-6.19553-1.18604 3.26612-7.38429 5.57179-3.68253 9.00092 1.26041 1.5956 4.66872 1.92169 8.0946 2.56582 6.08838-.72426-.22089-4.66565 6.22339-8.26745 32.19089 1.87997 22.34287-6.90786 30.73659-9.03475 11.1667 5.09561 11.25609-.73402 14.85431-5.60403 11.79499 7.38525 9.47322-.15268 11.58657-2.51167-2.85161-10.7834 8.53907-12.53407 12.32987-21.71393 5.13339-4.07984 12.66469-7.42864-6.54677-18.93016-5.96445-10.83854-3.53113-19.30133 7.81805-25.24182 18.78625 5.22799 33.7118.89782 50.56772 1.34673zM16.84819 40.328886c-.73848.92317-2.16676 3.73798 2.65977 4.22043 2.52614.25251 5.97739.57066-.0705 2.50016-2.43793.42725-3.77174-1.89528-5.46875-2.5-1.30874-.37928-3.11228-.89949-3.8125.9375-.26705 3.30695-.66201 5.64849-1.125 7.25 2.39668 1.79558 4.48155 3.50149 7.28125-1.0625 1.5756.44448 3.41699.78036 4 1.6875-1.14461.33603-2.34206.35206-3.21875.5625-3.29253.79034-7.55979.63975-7.40625 6.21875 6.20298-1.62875 7.36859 2.64814 5.875 4.9375 1.26928 1.51287 2.47172 1.49711 3.59375-.0312 2.73798-3.05584 3.06641-2.97085 4.65625-3.125 1.12699-.10927 2.18616-.4409 3.03125-.625.88353-.25239 1.51514.0277 1.96875.53125.35427 2.575-.51135 4.38728-4.4375 4.3125-1.07504.39594-1.53095 2.02401-.875 3.90625 5.19468 1.18436 5.26416 2.9327 5.75 5.46875.60889.95569 5.06995 2.40342 2.75-3.15625 2.49592-.1438 3.60398-2.27421 4-4.3125.77155-.98753 1.77658-1.20532 2.84375-1.25l-.0625.0625 3.4375 5.21875c-1.14622 6.16862-8.27358 11.74088-17.21875 15.15625 6.95674-1.20036 14.98111.9655 20.25-5.65625l8.40625 9.65625c-3.59582 6.47441.27126 13.157664 3 19.812504.52036-5.70738 1.83291-10.64495 7.4375-11.375004 6.5994 12.619414 19.04413 16.158034 23.65625 19.718754l22.78125 12.84375 7.875-43.250004c-28.79324.00034-32.50969-12.24902-44.3125-20.03125-11.33286-7.47237-18.38866-11.45431-24.59987-17.96875-6.65438-6.19929-11.46612-6.69289-18.36888-12.5625-.3969-.33749-2.50856-.95085-3.65441.15457-2.94601 1.53913-1.73296-2.62996-3.57062-3.24112-2.87026-.95456-5.29469 2.79439-7.05178 4.99091zM195.96072 219.42516c1.69924-.27261 9.82451-3.61158 19.93322 35.98537 15.45639 20.81377 35.08276-16.78268 38.35273-29.21122 2.31119-15.66259-4.31998-36.48972-4.31998-36.48972-.3456-10.38935 7.35468-16.74434 15.6367-22.80764-7.15934 1.83303-14.02442.60459-21.84078 9.2733 0 0-.30274-7.26933 2.4731-14.47296 2.77583-7.20364 11.3005-10.74683 11.3005-10.74683-9.74823 2.77664-18.11248 6.06103-20.22642 11.63852.3984-17.33306 11.06852-30.6264 24.80188-42.71502-12.91575 5.24576-24.67984 11.83255-32.01028 23.58203-.63126-31.22506 25.53834-41.02117 55.7469-59.285833 22.67243-13.708171 10.17411-32.080811 10.17411-32.080811-14.00253-7.117844-27.2267-4.456151-38.48191-.821101 0 0-7.85186-12.041609-15.57581-3.453918-8.95783 9.959557-15.50064 14.631358-14.83418 28.110614-1.1963-2.432782 16.20631-10.234727 28.05891-8.100079 9.54189 1.718492 4.89466-10.925126 4.89466-10.925126 20.60831-6.491796 48.69779-.883001 20.128 20.282686-34.31399 23.138948-61.65988 25.687788-56.63381 73.542918 2.8546 27.1797 27.10178 51.83467 23.50944 68.57279 1.18353 11.47604-17.11238 48.92618-26.82694 25.46151-6.53593-30.22504-14.70868-34.33889-25.08573-35.39597z" style="fill:#ffffff;fill-rule:evenodd;stroke:#000000;stroke-width:2;stroke-linecap:round;stroke-linejoin:round;stroke-miterlimit:4;stroke-dasharray:none;stroke-opacity:1"/>
  <path d="M146.66963 208.96784c5.99209 5.98396 12.60668 11.89974 10.3376 18.78865-6.27016 4.46477-9.68368 8.6665 6.25398 11.08646l6.12991-15.70703-12.5068-14.31835c-7.31272-1.82815-10.02398-1.44467-10.21469.15027z" style="fill:#ffffff;fill-rule:evenodd;stroke:#000000;stroke-width:2;stroke-linecap:round;stroke-linejoin:round;stroke-miterlimit:4;stroke-dasharray:none;stroke-opacity:1"/>
  <path d="M105.08003 130.16551c8.98311 36.75052 36.57428 49.05418 48.07835 71.0616 13.14337 25.14341 8.45812 27.45458 8.45812 27.45458-5.48908 14.82807-19.22019 27.38447-15.14374 36.83003 17.79744 41.23851-23.72432 24.82656-3.12195 49.12296-7.67047-15.02104 8.91925-16.50623 15.6674-22.80107 4.47951 6.39077 9.43786 12.31499 19.09327 13.66252-2.83982 9.22745-9.98518 18.61561-5.06575 27.55343-5.84625 5.72182-8.74175 14.33234-18.91914 15.81409-4.03327-2.36165-7.78184-10.44451-14.22723-4.6559-4.1543 1.82051-.45568 5.03051-.73663 6.70644 1.38036 3.05778 8.59282.36629 10.14851 3.5083-3.50828 2.64854-10.43135-.72015-14.30624 5.19756-1.66174 3.13372.17601 7.92896 3.6988 8.20313 9.53019-1.97645 3.04528-7.11768 12.64657-5.26944-2.27926 5.12267-9.53409 6.14116-5.83331 10.26155-.97013 3.60895 8.37279.32016 8.59391 2.47466 9.60554-2.9199-4.98897-6.20037 9.01392-9.31125-.14109 2.04074-.0724 5.59099 1.68259 7.18264 2.93672.5996 7.18972.73978 10.03493-1.11257.77612-2.63435.47289-6.66872-2.02273-9.18095 8.94306-7.20332 23.37776-10.38572 21.34338-25.62661 2.67172 3.34405 5.75984 6.24439 11.3902 6.43574-18.54193-14.63769 9.92099-10.92139-1.61634-21.17578 3.08432-3.60838 8.19298-29.36828 11.25458-8.26111 5.17898-11.71073 2.71403-13.60995.24022-15.69103-31.22095-26.26441 2.91623-61.90543-23.32625-93.87506.92605-55.37734-3.1709-84.20455-12.29085-108.008754z" style="fill:#ffffff;fill-rule:evenodd;stroke:#000000;stroke-width:2;stroke-linecap:round;stroke-linejoin:round;stroke-miterlimit:4;stroke-dasharray:none;stroke-opacity:1"/>
  <path d="m135.28125 109.76823-43.1875 37.875c-4.17775 3.32094-10.05034 6.52814-18.71875 7.40625-7.15084-1.33065-11.46001-4.56955-14.8125-8.4375-.84848-1.02513-.6414-1.56184-1.6875-2.0625-7.43336-2.64219-12.02445-1.74718-20-4.5625-.49128-.17342-2.69971.0268-3.375 1.46875-2.20169 2.49007-2.53403-1.83572-4.46875-1.75-3.02187.13389-3.95613 4.47695-4.8125 7.15625-.35992 1.12608-.68035 4.27377 4 3 2.44963-.66667 5.77188-1.58789.8125 2.375-2.12439 1.27005-4.19894-.41649-6-.375-1.35787.11332-3.22105.25283-3.21875 2.21875.93205 3.1841 1.39151 5.52628 1.53125 7.1875 2.88001.82081 5.45316 1.66927 6.4375-3.59375 1.63041-.14777 3.47512-.51398 4.34375.125-.94901.72278-2.06886 1.17773-2.8125 1.6875-2.79286 1.9145-6.85537 3.31281-4.71875 8.46875 5.21168-3.7374 7.85834-.17188 7.28125 2.5 1.72601.95955 2.84179.51581 3.34375-1.3125 1.46551-3.83235 1.78891-3.88177 3.21875-4.59375 1.01357-.5047 1.8702-1.18237 2.59375-1.65625.73504-.55139 1.42767-.527 2.03125-.21875 1.25086 2.27849 1.09999 4.29215-2.59375 5.625-.86263.75389-.69138 2.44509.59375 3.96875 5.27497-.74971 5.95266.83615 7.3125 3.03125.94956 1.06905 4.69746.0224 1.4375-3.90625 2.27982-1.02603 2.54584-3.4235 2.1875-5.46875.36781-1.19801 1.23797-1.7645 2.21875-2.1875l-.0312.0937 4.34375 3.125c7.67616 5.52242 4.44793 8.65891.84375 11.3125 6.95741-.19484 14.31786-.12534 20.21875-1.09375 4.22271 2.78276-2.24061 5.9867-5.03125 9.03125 17.14901-.19169 16.79769-8.77875 30.4375-14.21875-2.63713 5.01033-.19066 9.01263 2.53125 12.96875 1.41474-8.06118 9.44652-10.00012 16.4375-13.34375l4.78125-4.75c4.47896 2.0136 9.84731 1.6576 15.3125 1.0625-2.79856-3.05373-.27848-6.31619 4.59375-9.65625 11.50973-11.43705 10.50246-15.40714 10.46875-29.78125z" style="fill:#ffffff;fill-rule:evenodd;stroke:#000000;stroke-width:2;stroke-linecap:round;stroke-linejoin:round;stroke-miterlimit:4;stroke-dasharray:none;stroke-opacity:1"/>
  <path d="M174.00435 373.63934c.91594-3.75341-10.85997-1.7449-8.70554-.0626 2.15443 1.68228 3.4966 3.83816-.23528 8.9523 9.65803-.40716 8.02487-5.1363 8.94082-8.88971zm-20.83675 1.93917c.6167-.99148-1.36004-2.16752-3.39293-2.58056-2.03285-.41305-4.12174-.0632-3.72921 1.9971.86046 4.29187 2.32431 6.26261 3.27152 7.35023.92076-.47921 2.90243-2.80443 3.85062-6.76677zm-15.86967-7.80029c.56867.73136-.47778-9.42217-3.69537-6.52921-5.83066 3.23069-5.80946 7.01145-1.51603 11.19378 1.1424-5.8697 3.18511-5.20754 5.2114-4.66457zm2.16496-18.79821c-.37165-.20023 5.29522-3.65125 4.21384-5.17699-5.28467-3.61595-10.33845-5.1803-15.04942 4.69541 4.89888-4.55854 7.80367-1.80541 10.83558.48158zM26.71933 140.67133c2.55773-1.14485-.7849 6.09583-2.04266 6.91317-1.97753-2.90904-6.52782-3.95452-8.92913.3215-1.02806-9.16386 8.47346-10.62544 10.97179-7.23467zm-7.09825 13.57357c1.1965-.24427 2.06079 1.57375 2.66155 6.12405-2.57266 1.69799-6.59644 1.66948-7.55949 6.78926-2.69127-6.52633.49777-9.39518 4.89791-12.91334zm29.3899 19.08156c-2.88189-3.53685-9.83562-3.88039-8.21282-1.20668-.1241 2.32501.50355 5.15197-4.85494 5.46608 5.98122 7.7914 12.21282-1.4684 13.06776-4.2594zm-15.82987-3.50883c2.54347-2.4588-5.84214-6.35196-8.02399-1.86539-2.18187 4.48656-.10389 8.21347 7.64869 10.92845-2.79592-3.7001-2.16817-6.60425.3753-9.06306zM10.43712 45.648166c1.19933.22997 1.30584 2.24016.12778 6.67619-3.02553.58984-6.73501-.96945-9.5759 3.39735-.002-7.05945 4.03948-8.49704 9.44811-10.07358zm11.10856-9.9683c2.801-.0841-3.04802 5.33711-4.52231 5.61365-.72015-3.44304-4.52901-6.14319-8.37825-3.10445 2.5406-8.86446 11.8824-6.59605 12.90056-2.5092zM46.86114 336.5575c2.52591-2.92349-8.87128-6.50261-7.72032-4.02329 1.15096 2.4793 1.36308 5.00996-4.28947 7.86128 8.78224 4.03926 9.48387-.9145 12.00979-3.83799zm-17.30351-6.17508c1.10481-.37782.31771-2.53908-.99553-4.1449-1.3132-1.6058-3.15239-2.65615-4.15161-.81214-2.0484 3.86841-2.16122 6.32075-2.11557 7.76229 1.01627.21127 4.02193-.33614 7.26271-2.80525zm-4.62408-12.51374c.22979.89748 3.31979-8.83089-.78463-7.46128-6.63537.63712-8.12384 4.11261-5.85475 9.66028 3.38867-4.927 4.99779-3.50508 6.63938-2.199zm9.87365-14.44483c-.37165-.20023 5.29522-3.65125 4.21384-5.17699-5.28467-3.61595-10.33845-5.1803-15.04942 4.69541 4.89888-4.55854 7.80367-1.80541 10.83558.48158zM30.89878 74.446676c-1.31714-4.36803-7.6156-7.33481-7.13378-4.2445-1.00049 2.10241-1.49715 4.95529-6.57122 3.20431 2.5619 9.48248 11.85125 3.29502 13.705 1.04019zm-14.12872-9.887c3.28839-1.30439-2.98168-8.09861-6.70824-4.78159-3.72656 3.317-3.22511 7.5545 2.90851 13.01822-1.17545-4.48623.51134-6.93222 3.79973-8.23663z" style="color:#000000;display:inline;overflow:visible;visibility:visible;fill:#2b5df2;fill-opacity:1;fill-rule:nonzero;stroke:#000000;stroke-width:2;stroke-linecap:round;stroke-linejoin:round;stroke-miterlimit:4;stroke-dasharray:none;stroke-dashoffset:0;stroke-opacity:1;marker:none"/>
  <path d="M146.10731 46.543444c-23.12764 3.950914-37.4834 28.775368-61.261149 13.480402 16.124639 25.424687 36.795049-3.26996 63.807369-4.678872z" style="fill:#2b5df2;fill-opacity:1;fill-rule:evenodd;stroke:#000000;stroke-width:2;stroke-linecap:round;stroke-linejoin:round;stroke-miterlimit:4;stroke-dasharray:none;stroke-opacity:1"/>
  <path d="M109.59922 50.341763c.77357 3.401352 3.10876 5.755579 6.66148 7.293423-2.1321-4.152309 1.056-7.063452 2.83749-10.302743m1.02655 26.708984c-.028-2.818796-.84674-4.674739-.054-8.493116 2.41712 3.385572 6.05098 4.469114 9.17879 6.51011" style="fill:#ffffff;fill-rule:evenodd;stroke:#000000;stroke-width:2;stroke-linecap:round;stroke-linejoin:round;stroke-miterlimit:4;stroke-dasharray:none;stroke-opacity:1"/>
  <path d="m135.0236 134.35386-1.36269 10.21849 7.67201-5.91972c-10.34137 23.73444 4.85228 25.76458 20.82692 27.13088-5.95058-12.27572 7.68387-22.17392 11.28789-36.00007-3.61564 13.63771-.20804 21.30076 20.93298 13.87803-21.80244-4.77255.70325-17.09275-8.20034-32.23737 4.61413 8.48972 11.70323 3.73721 18.00944 3.17355-20.15398-5.853-9.60221-19.231894-8.94873-30.184743l-9.44696-18.736657c4.64972 12.151868 12.20041 7.239412 19.16804 5.756726-14.27678-2.878695-4.75025-21.802815-22.08359-30.165225 6.30567 2.506138 12.69984 6.012052 18.48169 2.598428-13.71673-1.712612-9.47362-15.64454-22.01156-18.841044 7.07204.385562 11.33346-2.083618 16.53867-3.594202-5.98918-.993625-11.42303.568233-18.1075-3.62474L167.3444 8.2617108l-25.74847-.3104769c-6.38826 1.852063-12.47122 4.3178571-17.45613 8.9910061-4.642 2.565231-10.59037 4.490814-10.17132 9.534095-9.90091 2.016219-28.60181 13.04018-14.154398 11.817154.671658 10.3277 3.239988 13.150568 8.791608 12.972915 12.46094 2.054805 15.08082-7.001818 24.21067-9.513918 20.54331 5.397546 12.43869 18.791719 6.48441 24.341636-6.47186 6.032365-18.39664 3.289216-18.39664 3.289216-3.73929 5.695051-3.24299 8.894646 1.48881 9.598794 5.81208 4.740669 7.49341.271686 10.46146-1.328504 20.38879-.442611 17.26346-10.700405 24.45081-16.653509-5.33678 8.594751 2.79922 19.421847-19.06797 24.933555-11.29216 2.8514-10.16984-1.451698-20.83393 1.692693-10.66407 3.144405-13.34384 10.238613-21.822397 10.88488-7.578964.577731-18.053643 1.442899-11.041782-15.082578-15.05557 15.73218 1.272632 28.856841 21.459259 21.796031-18.138746 6.54369-29.390653 14.98045-45.365756 5.60651 22.344117 26.49319 32.523017 7.57955 56.616656 4.942-23.874371 4.11368-20.455912 23.55666-46.447299 22.61501 7.492712 9.47684 15.502322 7.47649 26.011624 4.26949-3.85255 3.88276-6.903849 12.54514-15.245961 12.29063 4.815927 6.93237 17.51131 3.4509 28.461906.42953 12.45923-3.43764 18.48482-12.66591 24.99404-21.02401z" style="fill:#ffffff;fill-rule:evenodd;stroke:#000000;stroke-width:2;stroke-linecap:round;stroke-linejoin:round;stroke-miterlimit:4;stroke-dasharray:none;stroke-opacity:1"/>
  <path d="M152.07141 16.305779c-2.40073-9.5211429 6.41739-11.6044908 12.79969-15.3026969-.17293 6.3288295 1.3337 14.3635819-2.60535 16.8672019" style="fill:#ffffff;fill-rule:evenodd;stroke:#000000;stroke-width:2;stroke-linecap:round;stroke-linejoin:round;stroke-miterlimit:4;stroke-dasharray:none;stroke-opacity:1"/>
  <path d="M119.77669 29.402343c3.05293 1.417038 4.84133 1.873184 7.34078.743392 4.0828-1.700477 5.085-4.305923 7.07266-4.376897-.36595-1.679807-.89945-3.263554-3.72417-3.534-6.28546 2.101521-5.74885 4.264855-10.68927 7.167505z" style="fill:#ffffff;fill-opacity:1;fill-rule:evenodd;stroke:#000000;stroke-width:2;stroke-linecap:round;stroke-linejoin:round;stroke-miterlimit:4;stroke-dasharray:none;stroke-opacity:1"/>
  <path d="M160.43022 22.380506c4.49311.475916 6.85876 11.350717-.17453 12.829553 1.92989 1.404172 4.98809 3.310222 7.94212 0 .37444 4.555865-4.61528 11.58418-14.27219 12.305901 2.19557.960697 5.62727 1.395522 7.63922.960035-3.50054 2.678759 1.0837 13.979078.87275 16.58242-.28798 3.554124-2.88883 7.723277-6.28385 8.291211 6.0859 1.040598 9.57553-4.333857 10.49247-8.260626 1.2236-5.239985-2.61698-11.343755 1.28977-15.303866m-52.64215-22.605282c3.46233 3.62469 5.47232.566359 7.80065-1.027028 5.53686-7.741213 10.40074-3.071369 15.40602-1.009334m20.60903 266.75767c3.67913-8.06897-.18822-15.85624-1.47016-23.74002" style="fill:none;stroke:#000000;stroke-width:2;stroke-linecap:butt;stroke-linejoin:miter;stroke-miterlimit:4;stroke-dasharray:none;stroke-opacity:1"/>
</svg>