<svg width="400" height="400" version="1.0" xmlns="http://www.w3.org/2000/svg">
    <path d="M265.36 153.9c1.28-4.1 3.11-15 4.16-17.89 2.66-7.35 24.82-18.62 31.03-16.54 6.2 2.06-2.07 20.67-2.07 28.95 0 8.27 10.34 31.02 10.34 41.37 0 10.34-2.32 61.96-2.32 76.44 0 14.48-18.61 25.4-22.75 37.82-4.14 12.4-16.3 20.59-18.37 37.14-4.3 20.37-2.61 21.19 1.52 44.8-1.11 4.88-89.52 20.24-127.87-2.18 4.12-17.84 4.5-27.51 1.25-51.48-11.53-22.71-17.55-41.9-23.39-57.97-5.86-16.09-10.25-49.64-10.25-62.8 0-13.17 3.1-69.24.49-82.21-6.76-33.497 6.83-45.774 14.14-45.774 15.78 5.644 11.55 26.904 12.42 43.144 2.47 12.74 1.48 19.98 4.96 49.81-2.2-16.43-.56-27.55-1.04-44.87 1.53-22.93-.15-20.64 1.4-40.918 1.97-19.541-4.47-69.506 19.7-74.445 16.09-3.632 17.62 32.895 17.41 59.966 2.01 11.63 2.07 24.477 1.46 38.757.75 16.97.61 24.45.74 40.22.45-16.33-1.21-30.15.42-47.89 1.76-20.508 3.75-23.738 2.75-45.911 1.46-8.776-2.28-56.968 22.87-56.54 20.27 6.725 12.27 33.881 13.44 57.47 0 17.605.9 29.08.31 48.641 0 0-.13 21.34-1.77 42.8 1.69-22.12.81-28.71 1.5-43.44 2.39-17.58 2.55-17.212 4.31-33.932-.32-50.125 11.03-55.371 19.05-55.022 19.94.868 18.28 30.715 18.28 59.967 1.46 10.591.73 22.377 0 38.647 0 9.18 5.88 33.87 5.88 33.87z" style="fill:#e20909;stroke:#000;stroke-width:3"/>
    <path style="fill:none;stroke:#000;stroke-width:3" d="M265.12 154.06c-3.59 14.9 2.23 26.22 2.23 34.49 0 8.29-6.2 45.52-6.2 45.52l2.06-14.48s-28.95 2.06-39.3 10.34c-10.33 8.27-22.75 47.57-18.61 74.46m-72.79-127.13c-7.6 4.56-10.65 6.09-18.25 7.61m56.3-23.08c-10.66 1.53-16.74 6.09-22.83 7.6m60.86-10.65c-9.14-1.51-12.17-1.51-19.78 0m65.41 1.78c-12.16-4.56-19.77-6.08-28.89-4.56m31.36 180.9c-13.09 3.21-36.62-2.12-42.7-12.24m-30.61 9.25s-18.87 2.26-31.14-2.73"/>
</svg>